<svg width="24" height="24" viewBox="0 0 24 24" fill="none" xmlns="http://www.w3.org/2000/svg">
<path d="M8.29482 14.884C7.84145 14.884 7.46092 14.7279 7.15323 14.4158C6.84552 14.1036 6.69167 13.7209 6.69167 13.2675C6.69167 12.8142 6.84774 12.4336 7.15988 12.1259C7.47202 11.8182 7.85477 11.6644 8.30814 11.6644C8.76151 11.6644 9.14204 11.8204 9.44973 12.1326C9.75744 12.4447 9.91129 12.8275 9.91129 13.2808C9.91129 13.7342 9.75522 14.1147 9.44308 14.4224C9.13094 14.7301 8.74818 14.884 8.29482 14.884ZM15.7143 14.884C15.2609 14.884 14.8804 14.7279 14.5727 14.4158C14.265 14.1036 14.1112 13.7209 14.1112 13.2675C14.1112 12.8142 14.2672 12.4336 14.5794 12.1259C14.8915 11.8182 15.2743 11.6644 15.7276 11.6644C16.181 11.6644 16.5627 11.8204 16.8728 12.1326C17.1828 12.4447 17.3379 12.8275 17.3379 13.2808C17.3379 13.7342 17.1806 14.1147 16.8661 14.4224C16.5516 14.7301 16.1677 14.884 15.7143 14.884ZM11.9965 21.9868C14.7823 21.9868 17.1439 21.0191 19.081 19.0837C21.0182 17.1483 21.9868 14.7862 21.9868 11.9975C21.9868 11.4932 21.9474 10.9975 21.8686 10.5107C21.7898 10.0239 21.6913 9.57547 21.5731 9.16552C21.1791 9.26873 20.7559 9.33885 20.3034 9.37589C19.851 9.41294 19.3731 9.43147 18.8698 9.43147C16.9653 9.43147 15.1675 9.041 13.4764 8.26007C11.7853 7.47915 10.3412 6.36216 9.14427 4.90909C8.47919 6.49064 7.52591 7.87261 6.28441 9.05501C5.0429 10.2374 3.62152 11.1537 2.02027 11.8038V12.0106C2.02027 14.7956 2.98737 17.1546 4.92156 19.0875C6.85575 21.0203 9.21405 21.9868 11.9965 21.9868ZM12.0025 24C10.3438 24 8.78499 23.685 7.32609 23.0551C5.86719 22.4251 4.59631 21.5695 3.51344 20.4882C2.43057 19.4069 1.57427 18.137 0.94455 16.6785C0.31485 15.2199 0 13.6615 0 12.0031C0 10.3448 0.31485 8.78649 0.94455 7.32828C1.57427 5.87005 2.43057 4.60028 3.51344 3.51896C4.59631 2.43763 5.86747 1.5808 7.32692 0.948481C8.78635 0.31616 10.3458 0 12.0051 0C13.6645 0 15.2225 0.31616 16.6792 0.948481C18.1359 1.5808 19.4052 2.4371 20.4872 3.51737C21.5691 4.59764 22.4251 5.86728 23.055 7.3263C23.685 8.78532 24 10.3443 24 12.0032C24 13.6621 23.6852 15.2209 23.0557 16.6796C22.4262 18.1384 21.5702 19.4086 20.4877 20.4903C19.4051 21.572 18.1346 22.4274 16.676 23.0565C15.2174 23.6855 13.6596 24 12.0025 24ZM9.2779 2.34085C11.0115 4.36992 12.6121 5.75875 14.0797 6.50734C15.5473 7.25592 17.1578 7.63022 18.911 7.63022C19.3838 7.63022 19.7581 7.62037 20.0339 7.60067C20.3097 7.58097 20.6151 7.52187 20.95 7.42337C20.0635 5.8277 18.8569 4.51767 17.3301 3.49328C15.8034 2.4689 14.0255 1.95671 11.9965 1.95671C11.4646 1.95671 10.9622 1.99611 10.4894 2.07491C10.0166 2.15371 9.61279 2.24236 9.2779 2.34085ZM2.21556 9.69868C3.16115 9.34409 4.23971 8.54133 5.45124 7.2904C6.66277 6.03947 7.52463 4.52752 8.03682 2.75455C6.32295 3.52283 5.02769 4.50289 4.15106 5.69472C3.27442 6.88655 2.62926 8.22121 2.21556 9.69868Z" fill="#4694D9"/>
</svg>
