<svg xmlns="http://www.w3.org/2000/svg" width="426" height="346" viewBox="0 0 426 346" version="1.1"><path d="M 0.039 4.250 L 0.078 8.500 1.442 5.366 C 2.246 3.519, 3.976 1.805, 5.653 1.195 C 8.417 0.188, 8.376 0.156, 4.250 0.079 L 0 0 0.039 4.250 M 307.730 0.703 C 308.957 0.940, 310.869 2.289, 311.980 3.702 C 313.778 5.987, 314 7.740, 314 19.635 L 314 33 233.500 33 L 153 33 153 25 L 153 17 85 17 L 17 17 17 45 L 17 73 25 73 L 33 73 33 153.500 L 33 234 20.565 234 C 13.726 234, 6.956 233.553, 5.520 233.008 C 4.069 232.456, 2.281 230.569, 1.494 228.758 C 0.252 225.900, 0.073 232.897, 0.039 285.750 L 0 346 159.750 345.910 C 293.968 345.834, 318.356 345.612, 312.342 344.521 C 302.315 342.701, 295.886 340.458, 285.573 335.182 C 254.578 319.324, 235.003 288.910, 233.321 254 C 231.150 208.908, 259.218 169.896, 303.562 156.375 C 311.687 153.898, 314.001 153.643, 329 153.581 C 343.239 153.522, 346.656 153.828, 353.933 155.811 C 371.357 160.559, 385.910 169.082, 398.075 181.665 C 410.822 194.849, 418.977 209.168, 423.608 226.500 C 426.279 236.496, 426.272 262.546, 423.596 272.500 C 413.589 309.727, 384.652 337.039, 347.367 344.447 C 341.109 345.691, 344.284 345.820, 383.191 345.906 C 408.338 345.961, 426.117 345.620, 426.453 345.076 C 426.767 344.568, 426.719 266.718, 426.347 172.076 L 425.669 0 365.585 0.136 C 332.538 0.211, 306.504 0.466, 307.730 0.703 M 51.174 51.314 L 49 53.629 49 165.360 L 49 277.091 51.455 279.545 L 53.909 282 134.022 282 C 209.858 282, 214.106 281.907, 213.598 280.250 C 211.747 274.211, 210 259.038, 210 249 C 210 231.136, 213.871 213.208, 220.626 199.783 C 223.613 193.849, 223.597 193, 220.500 193 L 218 193 218 165.500 L 218 138 245.500 138 L 273 138 273 140.500 C 273 141.875, 273.203 143, 273.452 143 C 273.700 143, 277.571 141.387, 282.053 139.417 C 286.536 137.446, 294.545 134.655, 299.852 133.214 C 308.722 130.806, 311.112 130.592, 329.500 130.558 C 343.027 130.533, 350.956 130.942, 354 131.820 C 356.475 132.535, 359.287 133.348, 360.250 133.627 C 361.896 134.105, 362 131.760, 362 94.202 C 362 55.318, 361.946 54.201, 359.927 51.635 L 357.855 49 205.602 49 L 53.349 49 51.174 51.314 M 65 93 L 65 121 133 121 L 201 121 201 93 L 201 65 133 65 L 65 65 65 93 M 314.763 170.971 C 298.382 173.942, 283.067 182.621, 270.888 195.835 C 255.730 212.281, 249.108 230.833, 250.311 253.480 C 251.508 276.001, 259.460 293.081, 275.658 307.924 C 292.421 323.284, 310.811 329.839, 333.977 328.713 C 355.226 327.680, 369.948 321.137, 385.002 306.033 C 401.941 289.040, 408.942 272.595, 408.983 249.708 C 409.023 227.061, 401.662 208.885, 386.327 193.770 C 377.878 185.441, 374.273 182.739, 366 178.535 C 354.295 172.586, 346.921 170.804, 332.500 170.440 C 325.350 170.260, 317.369 170.499, 314.763 170.971 M 327.020 202.260 C 322.606 204.537, 322.031 207.236, 322.015 225.750 L 322 243 304.111 243 C 288.432 243, 285.949 243.220, 284.018 244.784 C 280.851 247.349, 280.791 253.602, 283.909 256.127 C 285.977 257.802, 288.117 258, 304.111 258 L 322 258 322.015 274.250 C 322.031 291.987, 322.644 294.582, 327.354 296.840 C 330.629 298.411, 335.409 296.973, 337.038 293.929 C 337.567 292.940, 338 284.452, 338 275.066 L 338 258 355.389 258 C 370.481 258, 373.057 257.769, 374.886 256.250 C 378.102 253.580, 378.588 249.017, 376.006 245.734 L 373.855 243 355.927 243 L 338 243 338 224.611 C 338 208.552, 337.778 205.960, 336.250 204.153 C 333.963 201.451, 330.119 200.662, 327.020 202.260 M 0.470 286 C 0.470 319.275, 0.596 332.888, 0.749 316.250 C 0.903 299.613, 0.903 272.388, 0.749 255.750 C 0.596 239.113, 0.470 252.725, 0.470 286" stroke="none" fill="#ffffff" fill-rule="evenodd"/><path d="M 82.250 0.750 C 123.363 0.894, 190.638 0.894, 231.750 0.750 C 272.863 0.605, 239.225 0.487, 157 0.487 C 74.775 0.487, 41.138 0.605, 82.250 0.750 M 0.483 117 C 0.483 177.225, 0.603 201.862, 0.750 171.750 C 0.897 141.637, 0.897 92.362, 0.750 62.250 C 0.603 32.137, 0.483 56.775, 0.483 117 M 169 25 L 169 33 197 33 L 225 33 225 25 L 225 17 197 17 L 169 17 169 25 M 241 25 L 241 33 269.500 33 L 298 33 298 25 L 298 17 269.500 17 L 241 17 241 25 M 356.083 49.261 C 356.313 49.404, 357.625 50.417, 359 51.511 L 361.500 53.500 359.595 51.250 C 358.547 50.013, 357.235 49, 356.678 49 C 356.122 49, 355.854 49.117, 356.083 49.261 M 217 93 L 217 121 245.500 121 L 274 121 274 93 L 274 65 245.500 65 L 217 65 217 93 M 289 93 L 289 121 317.500 121 L 346 121 346 93 L 346 65 317.500 65 L 289 65 289 93 M 17 117 L 17 145 25 145 L 33 145 33 117 L 33 89 25 89 L 17 89 17 117 M 324.287 129.740 C 327.469 129.939, 332.419 129.937, 335.287 129.736 C 338.154 129.535, 335.550 129.372, 329.500 129.374 C 323.450 129.376, 321.104 129.541, 324.287 129.740 M 65 165 L 65 193 133 193 L 201 193 201 165 L 201 137 133 137 L 65 137 65 165 M 217.234 165.250 L 217.467 193.500 217.749 165.750 L 218.032 138 245.516 138 L 273 138 273 140.500 C 273 141.875, 273.372 143, 273.827 143 C 274.282 143, 274.455 141.650, 274.213 140 L 273.773 137 245.387 137 L 217 137 217.234 165.250 M 319.269 153.693 C 320.242 153.947, 321.592 153.930, 322.269 153.656 C 322.946 153.382, 322.150 153.175, 320.500 153.195 C 318.850 153.215, 318.296 153.439, 319.269 153.693 M 337.269 153.693 C 338.242 153.947, 339.592 153.930, 340.269 153.656 C 340.946 153.382, 340.150 153.175, 338.500 153.195 C 336.850 153.215, 336.296 153.439, 337.269 153.693 M 17 189 L 17 217 25 217 L 33 217 33 189 L 33 161 25 161 L 17 161 17 189 M 326.768 169.725 C 328.565 169.947, 331.265 169.943, 332.768 169.715 C 334.271 169.486, 332.800 169.304, 329.500 169.310 C 326.200 169.315, 324.971 169.502, 326.768 169.725 M 391 175.500 C 392.292 176.875, 393.574 178, 393.849 178 C 394.124 178, 393.292 176.875, 392 175.500 C 390.708 174.125, 389.426 173, 389.151 173 C 388.876 173, 389.708 174.125, 391 175.500 M 260.971 181.750 L 254.500 188.500 261.250 182.029 C 267.520 176.018, 268.457 175, 267.721 175 C 267.568 175, 264.530 178.037, 260.971 181.750 M 364.083 177.365 C 364.313 177.565, 365.625 178.265, 367 178.920 C 369.357 180.042, 369.389 180.022, 367.559 178.555 C 365.966 177.279, 362.711 176.164, 364.083 177.365 M 382 189.500 C 383.866 191.425, 385.617 193, 385.892 193 C 386.167 193, 384.866 191.425, 383 189.500 C 381.134 187.575, 379.383 186, 379.108 186 C 378.833 186, 380.134 187.575, 382 189.500 M 272.469 193.250 L 266.500 199.500 272.750 193.531 C 278.556 187.987, 279.458 187, 278.719 187 C 278.564 187, 275.751 189.813, 272.469 193.250 M 387 194.313 C 387 194.485, 388.462 195.948, 390.250 197.563 L 393.500 200.500 390.563 197.250 C 387.825 194.221, 387 193.540, 387 194.313 M 322.413 225.500 C 322.414 235.400, 322.564 239.315, 322.746 234.199 C 322.928 229.084, 322.927 220.984, 322.744 216.199 C 322.561 211.415, 322.412 215.600, 322.413 225.500 M 65 237.500 L 65 266 133 266 L 201 266 201 237.500 L 201 209 133 209 L 65 209 65 237.500 M 13.250 233.742 C 16.962 233.934, 23.038 233.934, 26.750 233.742 C 30.462 233.549, 27.425 233.392, 20 233.392 C 12.575 233.392, 9.537 233.549, 13.250 233.742 M 425.195 239.500 C 425.215 241.150, 425.439 241.704, 425.693 240.731 C 425.947 239.758, 425.930 238.408, 425.656 237.731 C 425.382 237.054, 425.175 237.850, 425.195 239.500 M 233.252 242.500 C 233.263 244.700, 233.468 245.482, 233.707 244.238 C 233.946 242.994, 233.937 241.194, 233.687 240.238 C 233.437 239.282, 233.241 240.300, 233.252 242.500 M 209.349 249 C 209.349 253.675, 209.522 255.588, 209.732 253.250 C 209.943 250.912, 209.943 247.088, 209.732 244.750 C 209.522 242.412, 209.349 244.325, 209.349 249 M 409.328 249.500 C 409.333 253.350, 409.513 254.802, 409.730 252.728 C 409.946 250.653, 409.943 247.503, 409.722 245.728 C 409.501 243.952, 409.324 245.650, 409.328 249.500 M 249.195 249.500 C 249.215 251.150, 249.439 251.704, 249.693 250.731 C 249.947 249.758, 249.930 248.408, 249.656 247.731 C 249.382 247.054, 249.175 247.850, 249.195 249.500 M 233.272 256 C 233.272 258.475, 233.467 259.488, 233.706 258.250 C 233.944 257.012, 233.944 254.988, 233.706 253.750 C 233.467 252.512, 233.272 253.525, 233.272 256 M 425.195 259.500 C 425.215 261.150, 425.439 261.704, 425.693 260.731 C 425.947 259.758, 425.930 258.408, 425.656 257.731 C 425.382 257.054, 425.175 257.850, 425.195 259.500 M 322.409 274.500 C 322.408 283.850, 322.558 287.810, 322.743 283.299 C 322.928 278.789, 322.929 271.139, 322.745 266.299 C 322.562 261.460, 322.410 265.150, 322.409 274.500 M 133.500 281 L 53.500 281.518 133.750 281.759 C 186.744 281.918, 214 281.660, 214 281 C 214 280.450, 213.887 280.108, 213.750 280.241 C 213.613 280.374, 177.500 280.715, 133.500 281 M 385.469 306.250 L 379.500 312.500 385.750 306.531 C 391.556 300.987, 392.458 300, 391.719 300 C 391.564 300, 388.751 302.813, 385.469 306.250 M 272.500 306 C 275.209 308.750, 277.650 311, 277.925 311 C 278.200 311, 276.209 308.750, 273.500 306 C 270.791 303.250, 268.350 301, 268.075 301 C 267.800 301, 269.791 303.250, 272.500 306 M 397.473 317.250 L 390.500 324.500 397.750 317.527 C 404.484 311.050, 405.457 310, 404.723 310 C 404.571 310, 401.308 313.262, 397.473 317.250 M 261 317.500 C 263.987 320.525, 266.657 323, 266.932 323 C 267.207 323, 264.987 320.525, 262 317.500 C 259.013 314.475, 256.343 312, 256.068 312 C 255.793 312, 258.013 314.475, 261 317.500 M 327.264 329.718 C 328.784 329.947, 331.034 329.941, 332.264 329.704 C 333.494 329.467, 332.250 329.279, 329.500 329.286 C 326.750 329.294, 325.744 329.488, 327.264 329.718 M 320.250 345.689 C 321.212 345.941, 322.788 345.941, 323.750 345.689 C 324.712 345.438, 323.925 345.232, 322 345.232 C 320.075 345.232, 319.288 345.438, 320.250 345.689 M 335.762 345.707 C 337.006 345.946, 338.806 345.937, 339.762 345.687 C 340.718 345.437, 339.700 345.241, 337.500 345.252 C 335.300 345.263, 334.518 345.468, 335.762 345.707" stroke="none" fill="#e8e8e8" fill-rule="evenodd"/><path d="M 3.455 3.455 L 1 5.909 1 116.820 C 1 227.511, 1.004 227.735, 3.073 230.365 C 5.134 232.986, 5.218 233, 19.073 233 L 33 233 33 225 L 33 217 25 217 L 17 217 17 189 L 17 161 25 161 L 33 161 33 153 L 33 145 25 145 L 17 145 17 117 L 17 89 25 89 L 33 89 33 81 L 33 73 25 73 L 17 73 17 45 L 17 17 85 17 L 153 17 153 25 L 153 33 161 33 L 169 33 169 25 L 169 17 197 17 L 225 17 225 25 L 225 33 233 33 L 241 33 241 25 L 241 17 269.500 17 L 298 17 298 25.042 L 298 33.084 305.750 32.792 L 313.500 32.500 313.500 19.329 C 313.500 6.765, 313.388 6.038, 311.076 3.579 L 308.651 1 157.280 1 L 5.909 1 3.455 3.455 M 51.455 51.455 L 49 53.909 49 164.820 C 49 275.511, 49.004 275.735, 51.073 278.365 L 53.145 281 133.073 281 C 177.033 281, 213 280.887, 213 280.750 C 213 280.613, 212.357 277.125, 211.572 273 C 206.973 248.848, 209.447 224.288, 218.563 203.592 C 220.524 199.141, 222.372 194.938, 222.671 194.250 C 223.039 193.402, 222.216 193, 220.107 193 L 217 193 217 165 L 217 137 245.500 137 L 274 137 274 139.500 C 274 140.875, 274.178 142, 274.395 142 C 274.613 142, 277.925 140.666, 281.756 139.036 C 304.182 129.493, 332.850 126.471, 353.500 131.475 C 356.800 132.275, 360.077 132.945, 360.783 132.964 C 361.811 132.993, 362.010 125.124, 361.783 93.413 L 361.500 53.825 358.694 51.413 L 355.888 49 204.899 49 L 53.909 49 51.455 51.455 M 65 93 L 65 121 133 121 L 201 121 201 93 L 201 65 133 65 L 65 65 65 93 M 217 93 L 217 121 245.500 121 L 274 121 274 93 L 274 65 245.500 65 L 217 65 217 93 M 289 93 L 289 121 317.500 121 L 346 121 346 93 L 346 65 317.500 65 L 289 65 289 93 M 65 165 L 65 193 133 193 L 201 193 201 165 L 201 137 133 137 L 65 137 65 165 M 317.472 153.975 C 307.318 155.416, 298.917 157.953, 289.322 162.477 C 277.631 167.990, 272.284 171.657, 263.141 180.435 C 241.577 201.137, 231.204 228.846, 234.038 258.175 C 235.669 275.052, 240.587 288.766, 250.117 303.014 C 259.955 317.722, 273.658 329.293, 290.308 336.953 C 310.109 346.061, 332.694 347.973, 354.500 342.387 C 362.576 340.319, 377.811 333.029, 385.352 327.624 C 399.368 317.580, 413.074 300.127, 419.028 284.743 C 438.445 234.575, 413.534 178.296, 363.591 159.498 C 350.099 154.420, 330.706 152.097, 317.472 153.975 M 318.193 170.010 C 285.756 174.541, 258.740 199.254, 251.520 231 C 249.286 240.822, 249.273 258.078, 251.492 268 C 253.749 278.095, 260.635 292.040, 267.377 300.167 C 278.131 313.132, 291.137 321.675, 307.537 326.549 C 319.360 330.062, 338.202 330.335, 350.136 327.167 C 394.936 315.275, 419.880 268.486, 405.523 223.275 C 399.232 203.466, 381.050 183.886, 361.241 175.589 C 348.940 170.436, 331.408 168.164, 318.193 170.010 M 325.039 204.189 C 323.141 206.226, 323 207.643, 323 224.689 L 323 243 305.135 243 C 288.575 243, 287.077 243.151, 284.635 245.073 C 281.190 247.782, 281.114 252.205, 284.455 255.545 C 286.879 257.970, 287.129 258, 304.955 258 L 323 258 323 275.326 C 323 292.143, 323.068 292.715, 325.314 294.826 C 328.170 297.509, 332.021 297.612, 335.139 295.090 C 337.434 293.234, 337.509 292.690, 337.814 275.590 L 338.129 258 354.930 258 C 370.412 258, 371.937 257.837, 374.365 255.927 C 377.809 253.218, 377.957 248.248, 374.686 245.174 C 372.495 243.117, 371.452 243, 355.247 243 L 338.124 243 337.812 224.602 C 337.533 208.173, 337.296 205.979, 335.595 204.102 C 333.020 201.261, 327.726 201.304, 325.039 204.189 M 65 237.500 L 65 266 133 266 L 201 266 201 237.500 L 201 209 133 209 L 65 209 65 237.500" stroke="none" fill="#4694d9" fill-rule="evenodd"/></svg>