<svg xmlns="http://www.w3.org/2000/svg" width="421" height="334" viewBox="0 0 421 334" version="1.1"><path d="M 1.494 3.006 C 0.496 4.110, -0.136 5.190, 0.089 5.408 C 0.315 5.626, 1.309 4.723, 2.297 3.402 C 4.479 0.484, 3.994 0.245, 1.494 3.006 M 150.349 24 C 150.349 28.675, 150.522 30.587, 150.732 28.250 C 150.943 25.912, 150.943 22.087, 150.732 19.750 C 150.522 17.412, 150.349 19.325, 150.349 24 M 167 24 L 167 32 194.500 32 L 222 32 222 24 L 222 16 194.500 16 L 167 16 167 24 M 238 24 L 238 32 266 32 L 294 32 294 24 L 294 16 266 16 L 238 16 238 24 M 128.328 47.750 C 169.484 47.894, 236.534 47.894, 277.328 47.750 C 318.123 47.605, 284.450 47.487, 202.500 47.487 C 120.550 47.487, 87.173 47.605, 128.328 47.750 M 47.483 163 C 47.483 223.225, 47.603 247.862, 47.750 217.750 C 47.897 187.637, 47.897 138.362, 47.750 108.250 C 47.603 78.137, 47.483 102.775, 47.483 163 M 357 95.417 C 357 127.614, 356.722 136.946, 355.750 137.338 C 355.003 137.639, 355.205 137.874, 356.250 137.921 C 357.890 137.995, 358 135.363, 358 96 C 358 72.900, 357.775 54, 357.500 54 C 357.225 54, 357 72.638, 357 95.417 M 198.440 91.500 C 198.440 106.900, 198.579 113.060, 198.748 105.189 C 198.917 97.319, 198.917 84.719, 198.747 77.189 C 198.578 69.660, 198.439 76.100, 198.440 91.500 M 214 91.500 L 214 119 242 119 L 270 119 270 91.500 L 270 64 242 64 L 214 64 214 91.500 M 286 91.500 L 286 119 314 119 L 342 119 342 91.500 L 342 64 314 64 L 286 64 286 91.500 M 19.750 71.732 C 22.087 71.943, 25.912 71.943, 28.250 71.732 C 30.587 71.522, 28.675 71.349, 24 71.349 C 19.325 71.349, 17.412 71.522, 19.750 71.732 M 16 115 L 16 143 24 143 L 32 143 32 115 L 32 87 24 87 L 16 87 16 115 M 64 163.007 L 64 191.014 131.250 190.757 L 198.500 190.500 198.766 162.750 L 199.032 135 131.516 135 L 64 135 64 163.007 M 214.234 162.750 L 214.500 190.500 225.500 190.549 L 236.500 190.598 225.750 190.266 L 215 189.934 215 162.983 L 215 136.032 242.750 135.749 L 270.500 135.467 242.234 135.234 L 213.968 135 214.234 162.750 M 300.250 135.748 C 308.362 135.916, 321.637 135.916, 329.750 135.748 C 337.863 135.580, 331.225 135.442, 315 135.442 C 298.775 135.442, 292.137 135.580, 300.250 135.748 M 16 187 L 16 215 24 215 L 32 215 32 187 L 32 159 24 159 L 16 159 16 187 M 395 184.500 C 397.987 187.525, 400.657 190, 400.932 190 C 401.207 190, 398.987 187.525, 396 184.500 C 393.013 181.475, 390.343 179, 390.068 179 C 389.793 179, 392.013 181.475, 395 184.500 M 270.453 185.250 L 266.500 189.500 270.750 185.547 C 274.702 181.871, 275.460 181, 274.703 181 C 274.540 181, 272.627 182.912, 270.453 185.250 M 384.500 195 C 387.209 197.750, 389.650 200, 389.925 200 C 390.200 200, 388.209 197.750, 385.500 195 C 382.791 192.250, 380.350 190, 380.075 190 C 379.800 190, 381.791 192.250, 384.500 195 M 280.946 195.750 L 277.500 199.500 281.250 196.054 C 283.313 194.158, 285 192.471, 285 192.304 C 285 191.540, 284.154 192.260, 280.946 195.750 M 338.606 205.152 C 339.648 206.611, 340.700 207.611, 340.944 207.374 C 341.189 207.138, 340.337 205.944, 339.050 204.722 L 336.712 202.500 338.606 205.152 M 64 234.500 L 64 262 131.500 262 L 199 262 199 234.500 L 199 207 131.500 207 L 64 207 64 234.500 M 214.440 234.500 C 214.440 249.900, 214.579 256.060, 214.748 248.189 C 214.917 240.319, 214.917 227.719, 214.747 220.189 C 214.578 212.660, 214.439 219.100, 214.440 234.500 M 327.223 223.225 L 327 239.950 310.750 240.252 L 294.500 240.553 310.781 240.777 C 323.318 240.949, 327.177 240.703, 327.558 239.710 C 327.830 239, 327.916 231.238, 327.749 222.460 L 327.445 206.500 327.223 223.225 M 12.250 230.742 C 15.963 230.934, 22.038 230.934, 25.750 230.742 C 29.462 230.549, 26.425 230.392, 19 230.392 C 11.575 230.392, 8.537 230.549, 12.250 230.742 M 246.195 237.500 C 246.215 239.150, 246.439 239.704, 246.693 238.731 C 246.947 237.758, 246.930 236.408, 246.656 235.731 C 246.382 235.054, 246.175 235.850, 246.195 237.500 M 261.195 238.500 C 261.215 240.150, 261.439 240.704, 261.693 239.731 C 261.947 238.758, 261.930 237.408, 261.656 236.731 C 261.382 236.054, 261.175 236.850, 261.195 238.500 M 348.750 240.744 C 353.288 240.929, 360.712 240.929, 365.250 240.744 C 369.788 240.559, 366.075 240.407, 357 240.407 C 347.925 240.407, 344.212 240.559, 348.750 240.744 M 374.286 251.699 C 373.068 252.965, 372.436 254, 372.881 254 C 373.856 254, 377.494 250.112, 376.911 249.693 C 376.685 249.531, 375.504 250.434, 374.286 251.699 M 246.195 254.500 C 246.215 256.150, 246.439 256.704, 246.693 255.731 C 246.947 254.758, 246.930 253.408, 246.656 252.731 C 246.382 252.054, 246.175 252.850, 246.195 254.500 M 261.195 254.500 C 261.215 256.150, 261.439 256.704, 261.693 255.731 C 261.947 254.758, 261.930 253.408, 261.656 252.731 C 261.382 252.054, 261.175 252.850, 261.195 254.500 M 327.405 269.500 C 327.406 278.300, 327.559 281.766, 327.745 277.203 C 327.930 272.639, 327.929 265.439, 327.742 261.203 C 327.555 256.966, 327.404 260.700, 327.405 269.500 M 420.195 256.500 C 420.215 258.150, 420.439 258.704, 420.693 257.731 C 420.947 256.758, 420.930 255.408, 420.656 254.731 C 420.382 254.054, 420.175 254.850, 420.195 256.500 M 296.500 278 C 296.840 278.550, 298.415 279, 300 279 C 301.585 279, 303.160 278.550, 303.500 278 C 303.874 277.395, 302.491 277, 300 277 C 297.509 277, 296.126 277.395, 296.500 278 M 97.750 278.750 C 121.538 278.899, 160.463 278.899, 184.250 278.750 C 208.038 278.600, 188.575 278.478, 141 278.478 C 93.425 278.478, 73.963 278.600, 97.750 278.750 M 278 293.500 C 279.292 294.875, 280.574 296, 280.849 296 C 281.124 296, 280.292 294.875, 279 293.500 C 277.708 292.125, 276.426 291, 276.151 291 C 275.876 291, 276.708 292.125, 278 293.500 M 283 298.313 C 283 298.485, 284.462 299.948, 286.250 301.563 L 289.500 304.500 286.563 301.250 C 283.825 298.221, 283 297.540, 283 298.313 M 267 303.500 C 268.292 304.875, 269.574 306, 269.849 306 C 270.124 306, 269.292 304.875, 268 303.500 C 266.708 302.125, 265.426 301, 265.151 301 C 264.876 301, 265.708 302.125, 267 303.500 M 276 312.500 C 277.292 313.875, 278.574 315, 278.849 315 C 279.124 315, 278.292 313.875, 277 312.500 C 275.708 311.125, 274.426 310, 274.151 310 C 273.876 310, 274.708 311.125, 276 312.500 M 325.250 318.689 C 326.212 318.941, 327.788 318.941, 328.750 318.689 C 329.712 318.438, 328.925 318.232, 327 318.232 C 325.075 318.232, 324.288 318.438, 325.250 318.689 M 339.250 318.689 C 340.212 318.941, 341.788 318.941, 342.750 318.689 C 343.712 318.438, 342.925 318.232, 341 318.232 C 339.075 318.232, 338.288 318.438, 339.250 318.689 M 324.250 333.689 C 325.212 333.941, 326.788 333.941, 327.750 333.689 C 328.712 333.438, 327.925 333.232, 326 333.232 C 324.075 333.232, 323.288 333.438, 324.250 333.689 M 339.250 333.689 C 340.212 333.941, 341.788 333.941, 342.750 333.689 C 343.712 333.438, 342.925 333.232, 341 333.232 C 339.075 333.232, 338.288 333.438, 339.250 333.689" stroke="none" fill="#e8e8e8" fill-rule="evenodd"/><path d="M 0 2.155 C 0 4.284, 0.027 4.287, 2.250 2.416 C 3.488 1.374, 4.688 0.404, 4.917 0.261 C 5.146 0.117, 4.133 -0, 2.667 -0 C 0.603 -0, 0 0.487, 0 2.155 M 307.545 2.455 C 309.910 4.819, 310 5.406, 310 18.455 L 310 32 230 32 L 150 32 150 24 L 150 16 83 16 L 16 16 16 43.500 L 16 71 24 71 L 32 71 32 151.076 L 32 231.151 17.909 230.826 C 4.499 230.516, 3.726 230.386, 1.909 228.139 C 0.025 225.809, 0 226.477, 0 279.889 L 0 334 161.750 333.930 C 320.646 333.861, 323.348 333.827, 314.888 332.043 C 288.775 326.534, 265.774 307.930, 254.063 282.844 C 251.920 278.255, 249.439 271.800, 248.549 268.500 C 246.252 259.981, 245.438 241.782, 246.939 232.481 C 252.209 199.811, 274.574 173.787, 306.637 163.013 C 315.374 160.078, 318.068 159.645, 330.231 159.222 C 341.997 158.813, 345.340 159.063, 353.580 160.967 C 386.552 168.586, 412.621 195.350, 419.497 228.640 C 421.417 237.933, 421.425 254.847, 419.515 263.927 C 412.422 297.648, 385.319 325.037, 352.112 332.043 L 343.500 333.859 382.191 333.930 C 403.677 333.969, 421.125 333.606, 421.430 333.114 C 421.731 332.627, 421.683 257.477, 421.323 166.114 L 420.669 0 362.880 0 L 305.091 0 307.545 2.455 M 51.704 48.591 C 50.166 49.428, 48.479 51.241, 47.954 52.621 C 47.370 54.157, 47 97.022, 47 163.115 C 47 281.959, 46.663 275.641, 53.119 277.892 C 56.735 279.152, 227 279.525, 227 278.273 C 227 277.873, 226.248 274.048, 225.330 269.773 L 223.659 262 219.330 262 L 215 262 215 234.500 L 215 207 222.389 207 L 229.778 207 233.389 199.396 C 235.375 195.214, 237 191.389, 237 190.896 C 237 190.403, 232.050 190, 226 190 L 215 190 215 163 L 215 136 242.500 136 L 270 136 270 145.500 C 270 150.725, 270.170 155, 270.379 155 C 270.587 155, 273.363 153.431, 276.546 151.514 C 279.730 149.597, 283.160 147.767, 284.168 147.447 C 285.652 146.976, 286 145.819, 286 141.362 L 286 135.858 319.750 136.263 C 338.313 136.486, 354.527 137.024, 355.781 137.459 L 358.062 138.250 357.781 95.152 L 357.500 52.054 355.222 49.777 L 352.945 47.500 203.722 47.285 C 71.766 47.094, 54.176 47.245, 51.704 48.591 M 64 91.500 L 64 119 131 119 L 198 119 198 91.500 L 198 64 131 64 L 64 64 64 91.500 M 320.363 175.024 C 306.307 177.561, 293.899 184.189, 282.967 195 C 264.053 213.705, 257.419 237.622, 263.587 264.876 C 267.522 282.267, 282.776 301.331, 300.045 310.441 C 319.148 320.519, 345.383 321.123, 364.646 311.930 C 378.357 305.387, 391.909 291.738, 398.869 277.463 C 403.816 267.318, 405.383 259.889, 405.398 246.500 C 405.415 232.259, 403.833 225.261, 397.824 213 C 394.472 206.160, 391.982 202.840, 385.079 196 C 370.263 181.320, 356.318 175.140, 336.500 174.469 C 330.450 174.264, 323.188 174.514, 320.363 175.024 M 329 205 C 327.162 206.838, 327 208.333, 327 223.500 L 327 240 311.434 240 C 292.917 240, 290.052 240.940, 290.015 247.027 C 290.007 248.418, 290.701 250.555, 291.557 251.777 C 293.061 253.925, 293.682 254, 310.057 254 L 327 254 327 269.365 C 327 283.395, 327.180 284.959, 329.073 287.365 C 331.458 290.397, 335.368 290.832, 338.777 288.443 C 340.921 286.942, 341 286.302, 341 270.443 L 341 254 357.345 254 C 371.910 254, 373.870 253.801, 375.345 252.171 C 377.622 249.655, 377.445 244.445, 375 242 C 373.167 240.167, 371.667 240, 357 240 L 341 240 341 223.155 C 341 208.106, 340.805 206.134, 339.171 204.655 C 336.655 202.378, 331.445 202.555, 329 205 M 0.466 280 C 0.466 309.975, 0.594 322.237, 0.749 307.250 C 0.905 292.262, 0.905 267.737, 0.749 252.750 C 0.594 237.762, 0.466 250.025, 0.466 280 M 296.500 278 C 296.840 278.550, 298.415 279, 300 279 C 301.585 279, 303.160 278.550, 303.500 278 C 303.874 277.395, 302.491 277, 300 277 C 297.509 277, 296.126 277.395, 296.500 278" stroke="none" fill="#ffffff" fill-rule="evenodd"/><path d="M 2.923 2.923 L 0 5.846 -0 115.288 C -0 224.494, 0.004 224.736, 2.073 227.365 C 4.134 229.986, 4.218 230, 18.073 230 L 32 230 32 222.500 L 32 215 24 215 L 16 215 16 187 L 16 159 24 159 L 32 159 32 151 L 32 143 24 143 L 16 143 16 115 L 16 87 24 87 L 32 87 32 79.500 L 32 72 24 72 L 16 72 16 44 L 16 16 83.500 16 L 151 16 151 24 L 151 32 159 32 L 167 32 167 24 L 167 16 194.500 16 L 222 16 222 24 L 222 32 230 32 L 238 32 238 24 L 238 16 266 16 L 294 16 294 24 L 294 32 302.077 32 L 310.155 32 309.827 18.411 C 309.503 4.935, 309.477 4.802, 306.694 2.411 L 303.888 0 154.867 0 L 5.846 0 2.923 2.923 M 50.635 50.073 L 48 52.145 48 162.618 L 48 273.091 50.455 275.545 L 52.909 278 139.818 278 L 226.727 278 225.238 271.250 C 224.419 267.538, 223.595 263.938, 223.406 263.250 C 223.196 262.484, 221.307 262, 218.531 262 L 214 262 214 234.500 L 214 207 221.489 207 L 228.978 207 232.984 199.033 L 236.989 191.065 225.745 190.783 L 214.500 190.500 214.234 162.750 L 213.968 135 241.984 135 L 270 135 270 145.068 L 270 155.136 272.750 153.196 C 274.262 152.129, 277.863 150.066, 280.750 148.611 L 286 145.966 286 140.390 L 286 134.813 318.250 135.326 C 335.988 135.608, 351.963 136.151, 353.750 136.533 L 357 137.227 357 94.788 L 357 52.349 354.686 50.174 L 352.371 48 202.820 48 L 53.270 48 50.635 50.073 M 64 91.500 L 64 119 131.500 119 L 199 119 199 91.500 L 199 64 131.500 64 L 64 64 64 91.500 M 214 91.500 L 214 119 242 119 L 270 119 270 91.500 L 270 64 242 64 L 214 64 214 91.500 M 286 91.500 L 286 119 314 119 L 342 119 342 91.500 L 342 64 314 64 L 286 64 286 91.500 M 64 163.007 L 64 191.014 131.250 190.757 L 198.500 190.500 198.766 162.750 L 199.032 135 131.516 135 L 64 135 64 163.007 M 317.703 160.520 C 290.235 165.726, 265.379 185.245, 253.858 210.654 C 246.443 227.005, 244.402 250.476, 248.912 267.500 C 260.110 309.764, 300.261 337.841, 342.637 333.041 C 366.064 330.387, 387.349 318.670, 401.691 300.532 C 436.994 255.886, 421.515 191.029, 369.844 167.093 C 365.255 164.967, 358.575 162.478, 355 161.561 C 345.801 159.203, 327.369 158.688, 317.703 160.520 M 314.216 176.019 C 296.211 180.736, 279.470 193.891, 269.700 211 C 264.559 220.003, 261.773 230.582, 261.271 243 C 260.672 257.816, 262.434 266.419, 268.642 279 C 272.581 286.983, 274.785 289.956, 282.447 297.622 C 290.210 305.388, 292.970 307.422, 301.032 311.317 C 323.277 322.064, 349.423 321.468, 369.937 309.746 C 377.545 305.398, 389.461 293.815, 394.979 285.401 C 402.083 274.570, 405.219 264.115, 405.746 249.500 C 406.283 234.605, 404.566 225.587, 399.079 214.500 C 389.566 195.275, 372.365 181.081, 352.391 175.972 C 342.020 173.320, 324.435 173.341, 314.216 176.019 M 330.115 204.750 C 328.144 206.387, 327.991 207.597, 327.754 223.500 L 327.500 240.500 310.353 240.773 C 292.232 241.062, 291.743 241.192, 290.524 246.049 C 290.076 247.833, 290.519 249.390, 292.016 251.293 L 294.145 254 311.073 254 L 328 254 328 269.809 C 328 287.610, 328.531 289.333, 334.014 289.333 C 336.239 289.333, 337.912 288.593, 339.156 287.056 C 340.770 285.063, 341 282.855, 341 269.389 L 341 254 356.545 254 C 371.717 254, 372.150 253.941, 374.545 251.545 C 377.383 248.708, 377.637 246.355, 375.443 243.223 C 373.942 241.079, 373.302 241, 357.443 241 L 341 241 341 224.635 C 341 209.593, 340.832 208.057, 338.927 205.635 C 336.521 202.576, 333.141 202.236, 330.115 204.750 M 64 234.500 L 64 262 131.500 262 L 199 262 199 234.500 L 199 207 131.500 207 L 64 207 64 234.500" stroke="none" fill="#4795da" fill-rule="evenodd"/></svg>