<svg width="20" height="32" viewBox="0 0 20 32" fill="none" xmlns="http://www.w3.org/2000/svg">
<path d="M3.49555 32C2.53185 32 1.70833 31.6569 1.025 30.9706C0.341667 30.2843 0 29.4593 0 28.4956C0 27.5319 0.343149 26.7083 1.02945 26.025C1.71572 25.3417 2.54072 25 3.50445 25C4.46815 25 5.29167 25.3431 5.975 26.0294C6.65833 26.7157 7 27.5407 7 28.5044C7 29.4681 6.65685 30.2917 5.97055 30.975C5.28428 31.6583 4.45928 32 3.49555 32ZM16.4956 32C15.5319 32 14.7083 31.6569 14.025 30.9706C13.3417 30.2843 13 29.4593 13 28.4956C13 27.5319 13.3431 26.7083 14.0294 26.025C14.7157 25.3417 15.5407 25 16.5044 25C17.4681 25 18.2917 25.3431 18.975 26.0294C19.6583 26.7157 20 27.5407 20 28.5044C20 29.4681 19.6569 30.2917 18.9706 30.975C18.2843 31.6583 17.4593 32 16.4956 32ZM3.49555 19.5C2.53185 19.5 1.70833 19.1569 1.025 18.4706C0.341667 17.7843 0 16.9593 0 15.9956C0 15.0319 0.343149 14.2083 1.02945 13.525C1.71572 12.8417 2.54072 12.5 3.50445 12.5C4.46815 12.5 5.29167 12.8431 5.975 13.5294C6.65833 14.2157 7 15.0407 7 16.0044C7 16.9681 6.65685 17.7917 5.97055 18.475C5.28428 19.1583 4.45928 19.5 3.49555 19.5ZM16.4956 19.5C15.5319 19.5 14.7083 19.1569 14.025 18.4706C13.3417 17.7843 13 16.9593 13 15.9956C13 15.0319 13.3431 14.2083 14.0294 13.525C14.7157 12.8417 15.5407 12.5 16.5044 12.5C17.4681 12.5 18.2917 12.8431 18.975 13.5294C19.6583 14.2157 20 15.0407 20 16.0044C20 16.9681 19.6569 17.7917 18.9706 18.475C18.2843 19.1583 17.4593 19.5 16.4956 19.5ZM3.49555 7C2.53185 7 1.70833 6.65685 1.025 5.97055C0.341667 5.28428 0 4.45928 0 3.49555C0 2.53185 0.343149 1.70833 1.02945 1.025C1.71572 0.341667 2.54072 0 3.50445 0C4.46815 0 5.29167 0.343149 5.975 1.02945C6.65833 1.71572 7 2.54072 7 3.50445C7 4.46815 6.65685 5.29167 5.97055 5.975C5.28428 6.65833 4.45928 7 3.49555 7ZM16.4956 7C15.5319 7 14.7083 6.65685 14.025 5.97055C13.3417 5.28428 13 4.45928 13 3.49555C13 2.53185 13.3431 1.70833 14.0294 1.025C14.7157 0.341667 15.5407 0 16.5044 0C17.4681 0 18.2917 0.343149 18.975 1.02945C19.6583 1.71572 20 2.54072 20 3.50445C20 4.46815 19.6569 5.29167 18.9706 5.975C18.2843 6.65833 17.4593 7 16.4956 7Z" fill="#367BCF"/>
</svg>
