<svg width="30" height="25" viewBox="0 0 30 25" fill="none" xmlns="http://www.w3.org/2000/svg">
<path d="M14.8556 25V22.0417L23.7689 13.0417L26.6988 16L17.7854 25H14.8556ZM0 16.25V13.75H12.3796V16.25H0ZM28.4732 14.2083L25.5433 11.25L26.74 10.0417C26.9601 9.81944 27.249 9.70833 27.6066 9.70833C27.9642 9.70833 28.2531 9.81944 28.4732 10.0417L29.6699 11.25C29.89 11.4722 30 11.7639 30 12.125C30 12.4861 29.89 12.7778 29.6699 13L28.4732 14.2083ZM0 9.375V6.875H19.3948V9.375H0ZM0 2.5V0H19.3948V2.5H0Z" fill="#367BCF"/>
</svg>
