<svg width="22" height="19" viewBox="0 0 22 19" fill="none" xmlns="http://www.w3.org/2000/svg">
<path d="M1.84544 19C1.34706 19 0.914883 18.8032 0.548919 18.4096C0.182973 18.016 0 17.5512 0 17.0152V1.99178C0 1.45386 0.182973 0.987421 0.548919 0.592464C0.914883 0.197488 1.34706 0 1.84544 0H20.1481C20.6482 0 21.0819 0.197488 21.4491 0.592464C21.8164 0.987421 22 1.45386 22 1.99178V17.0152C22 17.5512 21.8164 18.016 21.4491 18.4096C21.0819 18.8032 20.6482 19 20.1481 19H1.84544ZM20.1481 3.75429L11.4956 9.88137C11.4108 9.92965 11.3312 9.96952 11.2568 10.001C11.1823 10.0324 11.0957 10.0482 10.9967 10.0482C10.8978 10.0482 10.8112 10.0324 10.7367 10.001C10.6623 9.96952 10.5827 9.92965 10.4979 9.88137L1.84544 3.75429V17.0152H20.1481V3.75429ZM10.9967 8.34263L20.0397 1.99178H1.98088L10.9967 8.34263ZM1.84544 3.97913V2.72571V2.74934V1.99178V2.73847V2.70491V3.97913Z" fill="#4694D9"/>
</svg>
