<svg width="16" height="25" viewBox="0 0 16 25" fill="none" xmlns="http://www.w3.org/2000/svg">
<path d="M1.90907 25C1.3935 25 0.946438 24.8104 0.567874 24.4313C0.189291 24.0523 0 23.6046 0 23.0884V1.91162C0 1.39536 0.189291 0.947699 0.567874 0.568631C0.946438 0.189544 1.3935 0 1.90907 0H14.0909C14.6065 0 15.0536 0.189544 15.4321 0.568631C15.8107 0.947699 16 1.39536 16 1.91162V23.0884C16 23.6046 15.8107 24.0523 15.4321 24.4313C15.0536 24.8104 14.6065 25 14.0909 25H1.90907ZM1.90907 22.2466V23.0884H14.0909V22.2466H1.90907ZM1.90907 20.5631H14.0909V4.43687H1.90907V20.5631ZM1.90907 2.75337H14.0909V1.91162H1.90907V2.75337Z" fill="#4694D9"/>
</svg>
