<svg xmlns="http://www.w3.org/2000/svg" fill="#4694D9" width="1024" height="664" viewBox="0 0 1024 664" version="1.1">
    <path d="M 0.079 8.250 C 0.147 15.349, 0.306 16.081, 1.222 13.500 C 3.531 6.986, 7.748 3.138, 14.994 0.934 C 16.615 0.441, 14.410 0.142, 8.750 0.086 L 0 0 0.079 8.250 M 725.236 0.996 C 730.004 2.431, 734.823 5.978, 737.200 9.800 C 739.455 13.428, 739.506 14.116, 739.802 45.250 L 740.104 77 550.052 77 L 360 77 360 58 L 360 39 199.500 39 L 39 39 39 105 L 39 171 57.750 171 L 76.500 171 76.500 361.051 L 76.500 551.103 45.500 550.801 C 15.658 550.511, 14.344 550.417, 10.334 548.273 C 5.914 545.909, 2.333 541.670, 0.988 537.209 C 0.539 535.719, 0.133 563.638, 0.086 599.250 L 0 664 63.696 664 L 127.392 664 122.840 661.113 C 119.810 659.192, 117.569 656.742, 116.138 653.786 L 113.989 649.345 114.244 387.765 L 114.500 126.186 117.558 122.343 C 119.240 120.229, 122.601 117.486, 125.028 116.246 L 129.441 113.992 484.470 114.246 C 832.799 114.495, 839.573 114.536, 843.385 116.428 C 845.723 117.588, 848.410 120.154, 850.135 122.874 L 853 127.392 853 175.829 L 853 224.266 803.633 273.633 L 754.266 323 718.633 323 L 683 323 683 358.760 L 683 394.519 663.500 414 L 644 433.481 644 378.240 L 644 323 578.500 323 L 513 323 513 389 L 513 455 567.740 455 L 622.481 455 603 474.500 L 583.519 494 548.260 494 L 513 494 513.061 573.250 C 513.117 645.369, 513.277 652.995, 514.846 658 L 516.570 663.500 541.535 663.738 C 566.436 663.975, 566.490 663.971, 562.491 662.145 C 558.185 660.178, 552.449 654.312, 550.933 650.324 C 550.420 648.974, 550 633.485, 550 615.903 C 550 589.408, 550.263 583.299, 551.539 580.218 C 552.633 577.573, 599.477 530.087, 713.783 415.748 C 802.171 327.335, 874.823 255.110, 875.231 255.248 C 875.639 255.387, 894.660 274.168, 917.500 296.985 L 959.027 338.471 798.264 499.336 C 686.638 611.033, 636.277 660.776, 633.500 662.079 L 629.500 663.956 657.510 663.978 L 685.520 664 704.500 645 L 723.480 626 769.240 626 L 815 626 815 580.240 L 815 534.480 834.015 515.490 L 853.031 496.500 852.765 574.658 L 852.500 652.815 849.475 656.552 C 847.811 658.608, 844.893 661.124, 842.991 662.145 C 839.600 663.963, 841.352 664, 931.707 664 C 983.883 664, 1024.119 663.617, 1024.427 663.118 C 1024.727 662.632, 1024.679 572.123, 1024.320 461.985 C 1023.758 289.496, 1023.478 262.481, 1022.297 267.118 C 1020.087 275.790, 1015.556 281.970, 1000.071 297.429 L 985.483 311.992 943.500 270 L 901.517 228.008 917.008 212.462 C 937.071 192.329, 940.358 190.500, 956.482 190.500 C 966.882 190.500, 967.893 190.686, 974.500 193.814 C 980.506 196.658, 983.961 199.570, 998.828 214.314 C 1016.570 231.911, 1020.478 236.937, 1022.633 244.929 C 1023.628 248.621, 1023.878 225.500, 1023.933 124.750 L 1024 0 873.250 0.086 C 790.337 0.133, 723.731 0.543, 725.236 0.996 M 153 219 L 153 285 313.500 285 L 474 285 474 219 L 474 153 313.500 153 L 153 153 153 219 M 732.667 455.108 L 591 597.373 591 610.187 L 591 623 603.751 623 L 616.503 623 758.498 481.002 L 900.494 339.003 887.414 325.923 L 874.333 312.843 732.667 455.108 M 0.472 599.500 C 0.472 635.250, 0.597 649.730, 0.750 631.677 C 0.902 613.625, 0.902 584.375, 0.749 566.677 C 0.596 548.980, 0.471 563.750, 0.472 599.500" stroke="none" fill="#ffffff" fill-rule="evenodd"/>
    <path d="M 193.250 0.750 C 290.462 0.891, 449.537 0.891, 546.750 0.750 C 643.962 0.609, 564.425 0.494, 370 0.494 C 175.575 0.494, 96.037 0.609, 193.250 0.750 M 0.492 275.500 C 0.492 418.500, 0.608 477.149, 0.750 405.831 C 0.892 334.512, 0.892 217.512, 0.750 145.831 C 0.608 74.149, 0.492 132.500, 0.492 275.500 M 739.445 46.500 C 739.444 63.550, 739.581 70.666, 739.748 62.312 C 739.915 53.959, 739.915 40.009, 739.748 31.312 C 739.582 22.616, 739.445 29.450, 739.445 46.500 M 38.472 105 C 38.472 141.575, 38.597 156.537, 38.750 138.250 C 38.902 119.962, 38.902 90.037, 38.750 71.750 C 38.597 53.462, 38.472 68.425, 38.472 105 M 360.419 58 C 360.419 68.725, 360.566 73.112, 360.746 67.750 C 360.925 62.387, 360.925 53.612, 360.746 48.250 C 360.566 42.887, 360.419 47.275, 360.419 58 M 398 58 L 398 77 464.500 77 L 531 77 531 58 L 531 39 464.500 39 L 398 39 398 58 M 569 58 L 569 77 635.250 77.001 L 701.500 77.002 701.208 58.001 L 700.916 39 634.958 39 L 569 39 569 58 M 306.331 114.750 C 404.138 114.891, 563.888 114.891, 661.331 114.750 C 758.774 114.609, 678.750 114.494, 483.500 114.494 C 288.250 114.494, 208.524 114.609, 306.331 114.750 M 152.243 218.750 L 152.485 285.500 152.750 219.253 L 153.014 153.006 313.757 152.750 L 474.500 152.494 313.250 152.247 L 152 152 152.243 218.750 M 512 218.493 L 512 285 578.507 285 L 645.014 285 644.757 218.750 L 644.500 152.500 578.250 152.243 L 512 151.986 512 218.493 M 683 218.500 L 683 285 737.240 285 L 791.480 285 772.990 303.823 C 762.821 314.176, 765.525 311.531, 779 297.946 C 792.475 284.361, 814.557 262.278, 828.071 248.873 C 841.585 235.468, 844.172 232.821, 833.821 242.990 L 815 261.480 815 206.740 L 815 152 749 152 L 683 152 683 218.500 M 76 190 L 76 209 57.500 209 L 39 209 39 275.500 L 39 342 57.500 342 L 76 342 76 361 L 76 380 57.500 380 L 39 380 39 446 L 39 512 57.500 512 L 76 512 76 530.985 L 76 549.970 46.250 550.251 L 16.500 550.531 46.500 550.765 L 76.500 551 76.500 361 C 76.500 256.500, 76.388 171, 76.250 171 C 76.112 171, 76 179.550, 76 190 M 916.995 212.505 L 901.514 228.011 943.514 270.011 L 985.514 312.011 1000.507 296.756 L 1015.500 281.500 1000.492 296.246 L 985.483 310.992 944 269.500 L 902.517 228.008 917.996 212.504 C 926.510 203.977, 933.251 197, 932.976 197 C 932.701 197, 925.509 203.977, 916.995 212.505 M 999 215.500 C 1008.613 225.125, 1016.704 233, 1016.979 233 C 1017.254 233, 1009.613 225.125, 1000 215.500 C 990.387 205.875, 982.296 198, 982.021 198 C 981.746 198, 989.387 205.875, 999 215.500 M 1023.328 255.500 C 1023.333 259.350, 1023.513 260.802, 1023.730 258.728 C 1023.946 256.653, 1023.943 253.503, 1023.722 251.728 C 1023.501 249.952, 1023.324 251.650, 1023.328 255.500 M 714.499 415.250 L 554.500 575.500 714.745 415.506 L 874.991 255.512 893.245 273.506 L 911.500 291.500 893.510 273.250 C 883.616 263.212, 875.291 255, 875.009 255 C 874.728 255, 802.498 327.112, 714.499 415.250 M 800.992 385.755 L 727.500 459.500 801.004 386.249 L 874.507 312.998 887.754 326.244 C 895.039 333.530, 901 339.261, 901 338.981 C 901 338.701, 895.034 332.518, 887.742 325.242 L 874.484 312.011 800.992 385.755 M 152 389 L 152 455 313 455 L 474 455 474 389 L 474 323 313 323 L 152 323 152 389 M 512.489 389 L 512.500 455.500 566.481 455.759 L 620.462 456.018 601.991 474.509 L 583.520 493 547.760 493 L 512 493 512.244 571.250 L 512.488 649.500 512.750 571.750 L 513.012 494 548.266 494 L 583.519 494 603 474.500 L 622.481 455 567.748 455 L 513.014 455 512.746 388.750 L 512.478 322.500 512.489 389 M 644.237 377.990 L 644 433.481 663.500 414 L 683 394.519 682.763 358.510 L 682.526 322.500 682.251 358.500 L 681.976 394.500 663.738 412.761 L 645.500 431.021 644.987 376.761 L 644.474 322.500 644.237 377.990 M 797.002 499.500 L 635.503 661.500 797.460 499.791 C 886.536 410.852, 959.210 337.952, 958.958 337.791 C 958.706 337.631, 885.826 410.400, 797.002 499.500 M 747 492.500 L 616.503 623 603.751 623 L 591 623 591 610.255 L 591 597.509 630.250 558.005 L 669.500 518.500 629.730 558 L 589.960 597.500 590.230 610.500 L 590.500 623.500 603.500 623.769 L 616.500 624.037 747.499 493.019 C 819.548 420.958, 878.272 362, 877.997 362 C 877.722 362, 818.773 420.725, 747 492.500 M 152 559.500 L 152 626 313 626 L 474 626 474 559.500 L 474 493 313 493 L 152 493 152 559.500 M 833.490 516.250 L 814.500 535.500 833.750 516.510 C 851.635 498.866, 853.452 497, 852.740 497 C 852.597 497, 843.935 505.663, 833.490 516.250 M 704.490 645.250 L 685.500 664.500 704.750 645.510 C 715.337 635.065, 724 626.403, 724 626.260 C 724 625.548, 722.134 627.365, 704.490 645.250" stroke="none" fill="#e8e8e8" fill-rule="evenodd"/>
    <path d="M 12.030 2.583 C 7.459 4.566, 5.192 6.707, 2.894 11.210 C 1.050 14.823, 1 21.774, 1 275.500 C 1 529.226, 1.050 536.177, 2.894 539.790 C 5.060 544.034, 7.155 546.078, 11.700 548.379 C 14.443 549.768, 19.268 550, 45.450 550 L 76 550 76 531 L 76 512 57.500 512 L 39 512 39 446 L 39 380 57.500 380 L 76 380 76 361 L 76 342 57.500 342 L 39 342 39 275.500 L 39 209 57.500 209 L 76 209 76 190 L 76 171 57 171 L 38 171 38 105 L 38 39 199.500 39 L 361 39 361 58 L 361 77 379.500 77 L 398 77 398 58 L 398 39 464.500 39 L 531 39 531 58 L 531 77 550 77 L 569 77 569 58 L 569 39 634.978 39 L 700.956 39 701.228 57.750 L 701.500 76.500 720.250 76.772 L 739 77.044 739 45.982 C 739 17.475, 738.844 14.615, 737.106 11.210 C 734.767 6.627, 732.496 4.523, 727.746 2.538 C 724.456 1.164, 686.400 1.004, 369.782 1.039 C 56.583 1.074, 15.098 1.253, 12.030 2.583 M 124.457 116.863 C 120.099 119.521, 116.216 124.485, 115.019 128.930 C 114.316 131.539, 114.067 215.781, 114.242 391.708 L 114.500 650.646 117.183 654.700 C 118.658 656.929, 121.583 659.822, 123.683 661.127 L 127.500 663.500 321.861 663.760 C 507.043 664.008, 516.189 663.937, 515.525 662.260 C 512.287 654.074, 512.035 647.464, 512.017 570.250 L 512 493 547.760 493 L 583.520 493 601.991 474.509 L 620.462 456.018 566.481 455.759 L 512.500 455.500 512.243 389.250 L 511.986 323 578.493 323 L 645 323 645 377.240 L 645 431.480 663.500 413 L 682 394.520 682 358.760 L 682 323 717.760 323 L 753.520 323 772.500 304 L 791.480 285 737.240 285 L 683 285 683 218.500 L 683 152 749 152 L 815 152 815 206.740 L 815 261.480 834 242.500 L 853 223.520 853 176.728 C 853 136.881, 852.772 129.389, 851.462 126.254 C 849.477 121.504, 847.373 119.233, 842.790 116.894 C 839.170 115.046, 830.446 115, 483.290 115.004 C 138.503 115.007, 127.406 115.065, 124.457 116.863 M 152 218.500 L 152 285 313 285 L 474 285 474 218.500 L 474 152 313 152 L 152 152 152 218.500 M 512 218.493 L 512 285 578.507 285 L 645.014 285 644.757 218.750 L 644.500 152.500 578.250 152.243 L 512 151.986 512 218.493 M 948.045 191.092 C 938.966 192.872, 934.077 196.351, 918.008 212.469 L 902.517 228.008 944.008 269.530 L 985.500 311.053 1001.085 295.276 C 1020.418 275.706, 1022.290 272.453, 1022.826 257.513 C 1023.420 240.968, 1022.517 239.347, 1000.106 216.691 C 979.787 196.149, 975.158 192.900, 963.500 190.993 C 956.605 189.865, 954.227 189.881, 948.045 191.092 M 713.322 417.250 C 573.145 557.508, 552.024 579.021, 551.088 582.500 C 550.430 584.945, 550.018 598.165, 550.028 616.500 C 550.042 643.369, 550.234 646.917, 551.866 650.500 C 554.269 655.777, 560.877 661.620, 566 663 C 568.709 663.729, 580.421 664.004, 600.306 663.804 C 626.400 663.541, 630.907 663.271, 633.500 661.814 C 635.150 660.886, 708.950 587.615, 797.500 498.989 L 958.500 337.850 917 296.950 C 894.175 274.456, 875.270 256.039, 874.990 256.025 C 874.709 256.011, 801.959 328.563, 713.322 417.250 M 732.426 454.558 L 590.500 597.237 590.500 610.368 L 590.500 623.500 603.467 623.781 L 616.434 624.063 735.780 504.781 C 801.421 439.177, 865.423 374.894, 878.008 361.930 L 900.888 338.361 887.621 325.120 L 874.353 311.880 732.426 454.558 M 152 389 L 152 455 313 455 L 474 455 474 389 L 474 323 313 323 L 152 323 152 389 M 152 559.500 L 152 626 313 626 L 474 626 474 559.500 L 474 493 313 493 L 152 493 152 559.500 M 833.750 516.750 L 815 535.519 815 580.760 L 815 626 769.740 626 L 724.480 626 705.500 645 L 686.520 664 762.010 663.978 C 833.087 663.957, 837.736 663.849, 841.541 662.120 C 846.445 659.893, 850.576 655.194, 852.017 650.205 C 852.746 647.680, 852.993 622.851, 852.793 572.240 L 852.500 497.980 833.750 516.750" stroke="none" fill="#4694D9" fill-rule="evenodd"/>
</svg>