<svg xmlns="http://www.w3.org/2000/svg" width="426" height="330" viewBox="0 0 426 330" version="1.1"><path d="M 82.329 0.750 C 124.034 0.894, 191.984 0.894, 233.329 0.750 C 274.673 0.605, 240.550 0.487, 157.500 0.487 C 74.450 0.487, 40.623 0.605, 82.329 0.750 M 313 19 L 313 32 305 32 L 297 32 297 24.500 L 297 17 269 17 L 241 17 241 24.500 L 241 32 233 32 L 225 32 225 24.500 L 225 17 197 17 L 169 17 169 24.460 L 169 31.919 160.750 32.256 C 156.213 32.441, 188.837 32.685, 233.250 32.796 L 314 33 314 19.500 C 314 12.075, 313.775 6, 313.500 6 C 313.225 6, 313 11.850, 313 19 M 50.750 16.750 C 69.587 16.902, 100.412 16.902, 119.250 16.750 C 138.087 16.597, 122.675 16.473, 85 16.473 C 47.325 16.473, 31.912 16.597, 50.750 16.750 M 129.750 48.750 C 171.137 48.894, 238.862 48.894, 280.250 48.750 C 321.637 48.605, 287.775 48.487, 205 48.487 C 122.225 48.487, 88.362 48.605, 129.750 48.750 M 360.778 85.501 C 360.625 102.826, 360.837 117.001, 361.250 117.001 C 361.663 117, 362 102.825, 362 85.500 C 362 68.175, 361.787 54, 361.528 54 C 361.268 54, 360.930 68.175, 360.778 85.501 M 98.750 64.750 C 117.587 64.902, 148.412 64.902, 167.250 64.750 C 186.087 64.597, 170.675 64.473, 133 64.473 C 95.325 64.473, 79.912 64.597, 98.750 64.750 M 217 93 L 217 121 245 121 L 273 121 273 93 L 273 65 245 65 L 217 65 217 93 M 290 93 C 290 108.400, 290.235 121, 290.521 121 C 290.808 121, 292.721 119.893, 294.771 118.539 C 302.209 113.630, 305.831 113, 326.626 113 L 346 113 346 89 L 346 65 318 65 L 290 65 290 93 M 20.750 72.732 C 23.087 72.943, 26.912 72.943, 29.250 72.732 C 31.587 72.522, 29.675 72.349, 25 72.349 C 20.325 72.349, 18.412 72.522, 20.750 72.732 M 17 117 L 17 145 25 145 L 33 145 33 117 L 33 89 25 89 L 17 89 17 117 M 65 165 L 65 193 133 193 L 201 193 201 165 L 201 137 133 137 L 65 137 65 165 M 217.428 159 C 217.428 171.375, 217.571 176.438, 217.747 170.250 C 217.922 164.063, 217.922 153.938, 217.747 147.750 C 217.571 141.563, 217.428 146.625, 217.428 159 M 273.116 141.191 C 273.052 143.771, 273.356 146.102, 273.791 146.371 C 274.226 146.640, 274.425 145.204, 274.233 143.180 C 273.647 136.996, 273.238 136.267, 273.116 141.191 M 17 189 L 17 217 25 217 L 33 217 33 189 L 33 161 25 161 L 17 161 17 189 M 315.825 177.326 C 315.452 179.151, 315.592 179.808, 316.218 179.182 C 316.751 178.649, 317.011 177.377, 316.794 176.356 C 316.503 174.981, 316.251 175.233, 315.825 177.326 M 365 189.313 C 365 189.485, 366.462 190.948, 368.250 192.563 L 371.500 195.500 368.563 192.250 C 365.825 189.221, 365 188.540, 365 189.313 M 288.924 193.750 L 286.500 196.500 289.250 194.076 C 290.762 192.742, 292 191.505, 292 191.326 C 292 190.541, 291.190 191.180, 288.924 193.750 M 209.286 202.500 C 209.294 205.250, 209.488 206.256, 209.718 204.736 C 209.947 203.216, 209.941 200.966, 209.704 199.736 C 209.467 198.506, 209.279 199.750, 209.286 202.500 M 233.195 202.500 C 233.215 204.150, 233.439 204.704, 233.693 203.731 C 233.947 202.758, 233.930 201.408, 233.656 200.731 C 233.382 200.054, 233.175 200.850, 233.195 202.500 M 324.250 202.689 C 325.212 202.941, 326.788 202.941, 327.750 202.689 C 328.712 202.438, 327.925 202.232, 326 202.232 C 324.075 202.232, 323.288 202.438, 324.250 202.689 M 331.250 202.689 C 332.212 202.941, 333.788 202.941, 334.750 202.689 C 335.712 202.438, 334.925 202.232, 333 202.232 C 331.075 202.232, 330.288 202.438, 331.250 202.689 M 65 237 L 65 265 133 265 L 201 265 201 237 L 201 209 133 209 L 65 209 65 237 M 316.924 221.750 L 314.500 224.500 317.250 222.076 C 318.762 220.742, 320 219.505, 320 219.326 C 320 218.541, 319.190 219.180, 316.924 221.750 M 217.360 233 C 217.360 238.225, 217.529 240.363, 217.735 237.750 C 217.941 235.137, 217.941 230.863, 217.735 228.250 C 217.529 225.637, 217.360 227.775, 217.360 233 M 385.252 228.500 C 385.263 230.700, 385.468 231.482, 385.707 230.238 C 385.946 228.994, 385.937 227.194, 385.687 226.238 C 385.437 225.282, 385.241 226.300, 385.252 228.500 M 273.336 233 C 273.336 237.125, 273.513 238.813, 273.728 236.750 C 273.944 234.688, 273.944 231.313, 273.728 229.250 C 273.513 227.188, 273.336 228.875, 273.336 233 M 402.320 233 C 402.320 236.575, 402.502 238.037, 402.723 236.250 C 402.945 234.463, 402.945 231.537, 402.723 229.750 C 402.502 227.963, 402.320 229.425, 402.320 233 M 256.272 233 C 256.272 235.475, 256.467 236.488, 256.706 235.250 C 256.944 234.012, 256.944 231.988, 256.706 230.750 C 256.467 229.512, 256.272 230.525, 256.272 233 M 312.195 233.500 C 312.215 235.150, 312.439 235.704, 312.693 234.731 C 312.947 233.758, 312.930 232.408, 312.656 231.731 C 312.382 231.054, 312.175 231.850, 312.195 233.500 M 385.252 236.500 C 385.263 238.700, 385.468 239.482, 385.707 238.238 C 385.946 236.994, 385.937 235.194, 385.687 234.238 C 385.437 233.282, 385.241 234.300, 385.252 236.500 M 340.924 244.750 L 338.500 247.500 341.250 245.076 C 342.762 243.742, 344 242.505, 344 242.326 C 344 241.541, 343.190 242.180, 340.924 244.750 M 327.762 249.707 C 329.006 249.946, 330.806 249.937, 331.762 249.687 C 332.718 249.437, 331.700 249.241, 329.500 249.252 C 327.300 249.263, 326.518 249.468, 327.762 249.707 M 209.286 263.500 C 209.294 266.250, 209.488 267.256, 209.718 265.736 C 209.947 264.216, 209.941 261.966, 209.704 260.736 C 209.467 259.506, 209.279 260.750, 209.286 263.500 M 233.195 263.500 C 233.215 265.150, 233.439 265.704, 233.693 264.731 C 233.947 263.758, 233.930 262.408, 233.656 261.731 C 233.382 261.054, 233.175 261.850, 233.195 263.500 M 135 281 L 55.500 281.518 134.691 281.759 C 186.668 281.917, 214.094 281.656, 214.500 281 C 214.840 280.450, 214.979 280.108, 214.809 280.241 C 214.639 280.373, 178.725 280.715, 135 281 M 319.750 329.745 C 324.837 329.927, 333.162 329.927, 338.250 329.745 C 343.337 329.564, 339.175 329.415, 329 329.415 C 318.825 329.415, 314.662 329.564, 319.750 329.745" stroke="none" fill="#e8e8e8" fill-rule="evenodd"/><path d="M 0 165 L 0 330 155.750 329.973 C 302.902 329.948, 311.348 329.853, 308.751 328.243 C 305.470 326.208, 304.639 323.774, 302.546 310.060 C 301.669 304.317, 300.851 299.533, 300.726 299.428 C 300.602 299.323, 297.800 297.846, 294.500 296.147 C 291.200 294.447, 287.360 292.323, 285.966 291.427 C 283.520 289.855, 283.037 289.976, 272.126 294.899 C 259.548 300.574, 255.416 301.168, 252.292 297.750 C 249.002 294.149, 233 265.490, 233 263.197 C 233 260.153, 236.327 256.820, 246.990 249.183 L 256.480 242.386 256.548 233.101 L 256.615 223.816 246.804 216.811 C 236.409 209.390, 233 205.933, 233 202.814 C 233 200.378, 250.421 170.087, 253.166 167.750 C 256.346 165.043, 259.184 165.585, 271.880 171.325 L 283.658 176.649 287.079 174.223 C 288.961 172.888, 292.863 170.684, 295.750 169.325 C 298.637 167.966, 301.008 166.549, 301.018 166.177 C 301.028 165.805, 301.903 160.156, 302.961 153.625 C 305.790 136.176, 304.488 136.992, 329.424 137.032 C 350.815 137.066, 352.060 137.324, 353.812 142.081 C 354.301 143.412, 355.502 149.547, 356.481 155.716 L 358.259 166.933 364.379 169.906 C 367.746 171.542, 371.709 173.669, 373.186 174.633 C 375.841 176.365, 376.003 176.326, 387.450 171.193 C 393.819 168.337, 400.123 166, 401.459 166 C 402.795 166, 405.001 167.013, 406.360 168.250 C 409.763 171.348, 426 199.903, 426 202.790 C 426 206.756, 424.558 208.250, 413.346 215.904 L 402.500 223.309 402.500 232.985 L 402.500 242.661 412.358 249.581 C 422.975 257.032, 426 260.086, 426 263.351 C 426 265.622, 410.019 294.108, 406.701 297.750 C 403.654 301.095, 399.406 300.587, 388.635 295.588 C 375.081 289.297, 376.036 289.374, 368.887 293.994 C 365.423 296.233, 361.605 298.312, 360.401 298.614 C 358.449 299.104, 358.035 300.366, 356.554 310.332 C 354.491 324.225, 353.476 326.883, 349.579 328.587 C 346.942 329.741, 352.236 329.903, 386.500 329.717 L 426.500 329.500 426.753 164.750 L 427.006 -0 367.580 0 L 308.154 0 311.077 2.923 L 314 5.846 314 19.423 L 314 33 233.500 33 L 153 33 153 25 L 153 17 85 17 L 17 17 17 44.500 L 17 72 25 72 L 33 72 33 152.500 L 33 233 19.174 233 C 6.015 233, 5.244 232.888, 3.174 230.686 L 1 228.371 1 117.120 C 1 40.314, 1.330 5.252, 2.065 3.878 C 2.651 2.783, 4.114 1.491, 5.315 1.007 C 7.166 0.261, 6.926 0.117, 3.750 0.063 L 0 0 0 165 M 0.488 165.500 C 0.488 256.250, 0.606 293.227, 0.750 247.671 C 0.894 202.115, 0.894 127.865, 0.750 82.671 C 0.606 37.477, 0.488 74.750, 0.488 165.500 M 53.500 49.202 C 48.900 51.853, 49.065 47.556, 49.032 165.076 L 49 276.651 51.580 279.076 L 54.161 281.500 133.312 281.768 C 176.846 281.915, 213.023 281.821, 213.705 281.560 C 214.613 281.211, 214.285 279.661, 212.483 275.792 C 208.265 266.732, 209.459 254.105, 215.353 245.431 C 217.698 241.980, 218 240.575, 218 233.105 C 218 225.539, 217.704 224.205, 215.114 220.088 C 210.847 213.304, 209.692 208.696, 210.216 200.542 C 210.588 194.732, 211.377 192.037, 214.338 186.461 L 218 179.565 218 158.283 L 218 137 245.500 137 L 273 137 273 141.548 C 273 145.729, 273.263 146.208, 276.250 147.481 C 280.045 149.097, 280.112 149.005, 281.823 139.772 C 283.285 131.889, 285.650 127.296, 291.030 121.893 C 298.828 114.063, 303.227 113, 327.820 113 C 347.460 113, 353.696 113.667, 360.250 116.466 C 361.895 117.169, 362 115.330, 362 85.663 L 362 54.112 359.587 51.306 L 357.173 48.500 206.337 48.275 C 93.943 48.107, 54.990 48.344, 53.500 49.202 M 65 93 L 65 121 133 121 L 201 121 201 93 L 201 65 133 65 L 65 65 65 93 M 319.916 153.214 C 319.869 153.371, 319.082 159.309, 318.166 166.408 L 316.500 179.316 309.866 181.553 C 302.709 183.967, 293.906 189.198, 290.182 193.251 L 287.864 195.774 275.372 190.387 C 268.502 187.424, 262.726 185, 262.536 185 C 262.346 185, 260.963 187.137, 259.463 189.750 C 257.964 192.363, 255.905 195.889, 254.888 197.587 L 253.038 200.674 264.418 208.813 L 275.798 216.952 274.809 221.226 C 273.921 225.061, 274.141 244.362, 275.113 247.915 C 275.352 248.791, 271.250 252.411, 264.347 257.415 L 253.194 265.500 256.347 271.085 C 258.081 274.156, 260.194 277.703, 261.043 278.965 L 262.585 281.261 274.490 276.131 C 281.037 273.309, 286.787 271, 287.268 271 C 287.748 271, 290.247 272.752, 292.821 274.894 C 298.009 279.212, 305.278 283.110, 311.750 285.046 C 314.087 285.745, 316.038 286.358, 316.084 286.408 C 316.131 286.459, 316.921 292.350, 317.840 299.500 L 319.511 312.500 329.493 312.500 L 339.475 312.500 340.697 302.500 C 342.740 285.777, 342.478 286.473, 347.267 285.041 C 353.723 283.110, 360.995 279.208, 366.179 274.894 C 368.753 272.752, 371.252 271, 371.732 271 C 372.213 271, 377.919 273.290, 384.414 276.089 C 392.734 279.675, 396.535 280.865, 397.282 280.118 C 397.865 279.535, 400.035 276.023, 402.104 272.313 L 405.866 265.569 399.358 260.824 C 395.778 258.214, 390.674 254.516, 388.015 252.606 C 383.242 249.177, 383.192 249.085, 384.090 245.317 C 385.294 240.259, 385.297 224.344, 384.094 220.248 L 383.139 216.997 394.492 208.877 L 405.846 200.757 402.673 195.054 C 400.928 191.918, 398.825 188.357, 398 187.141 L 396.500 184.931 384.846 189.966 C 378.436 192.735, 372.652 195, 371.993 195 C 371.333 195, 368.564 192.995, 365.839 190.545 C 360.442 185.693, 352.650 181.584, 346.750 180.479 C 344.688 180.093, 342.966 179.490, 342.924 179.139 C 342.882 178.787, 342.095 172.875, 341.174 166 L 339.500 153.500 329.750 153.214 C 324.387 153.056, 319.962 153.056, 319.916 153.214 M 321 202.876 C 312.749 205.589, 304.520 212.462, 300.335 220.136 C 297.459 225.408, 297.729 241.043, 300.794 246.791 C 303.789 252.407, 309.955 258.311, 315.807 261.167 C 322.184 264.279, 332.945 264.843, 340.174 262.444 C 347.338 260.068, 356.944 250.603, 359.329 243.572 C 362.975 232.820, 360.763 221.290, 353.506 213.218 C 346.992 205.973, 340.247 202.710, 331.038 202.350 C 326.892 202.187, 322.375 202.424, 321 202.876 M 323.001 218.069 C 314.120 221.803, 310.365 232.594, 315.068 240.864 C 318.212 246.394, 321.565 248.379, 328.476 248.805 C 333.525 249.115, 335.052 248.797, 337.908 246.838 C 343.700 242.865, 345.500 239.585, 345.500 233 C 345.500 226.713, 343.859 223.477, 338.730 219.648 C 335.659 217.355, 326.811 216.467, 323.001 218.069" stroke="none" fill="#ffffff" fill-rule="evenodd"/><path d="M 3.073 3.635 C 1.004 6.265, 1 6.489, 1 117.180 L 1 228.091 3.455 230.545 C 5.819 232.910, 6.406 233, 19.455 233 L 33 233 33 225 L 33 217 25 217 L 17 217 17 189 L 17 161 25 161 L 33 161 33 153 L 33 145 25 145 L 17 145 17 117 L 17 89 25 89 L 33 89 33 81 L 33 73 25 73 L 17 73 17 44.500 L 17 16 85 16 L 153 16 153 24 L 153 32 161 32 L 169 32 169 24.500 L 169 17 197 17 L 225 17 225 24.500 L 225 32 233 32 L 241 32 241 24.500 L 241 17 269 17 L 297 17 297 24.500 L 297 32 305 32 L 313 32 313 18.500 C 313 6.333, 312.802 4.802, 311 3 C 309.018 1.018, 307.667 1, 157.073 1 L 5.145 1 3.073 3.635 M 51.455 51.455 L 49 53.909 49 165 L 49 276.091 51.455 278.545 L 53.909 281 133.955 281 C 177.980 281, 214 280.757, 214 280.460 C 214 280.163, 213.108 278.172, 212.017 276.034 C 207.664 267.501, 208.743 254.719, 214.571 245.771 C 216.693 242.515, 217 240.889, 217 232.926 C 217 225.520, 216.638 223.300, 215.069 221.097 C 211.339 215.859, 209.509 209.724, 209.504 202.448 C 209.501 196.310, 209.986 194.413, 213.250 187.809 L 217 180.221 217 158.611 L 217 137 245.500 137 L 274 137 274 141.465 C 274 144.856, 274.465 146.179, 275.934 146.965 C 279.190 148.707, 279.612 148.229, 280.877 141.361 C 282.169 134.354, 284.935 127.911, 288.172 124.373 C 290.010 122.364, 290.113 120.653, 290.031 93.623 L 289.944 65 317.972 65 L 346 65 346 89 L 346 113 349.250 113.044 C 351.038 113.068, 354.300 113.736, 356.500 114.529 C 358.700 115.321, 360.613 115.977, 360.750 115.985 C 360.887 115.993, 361 101.825, 361 84.500 C 361 54.333, 360.915 52.915, 359 51 C 357.018 49.018, 355.667 49, 205.455 49 L 53.909 49 51.455 51.455 M 65 92.500 L 65 121 133 121 L 201 121 201 92.500 L 201 64 133 64 L 65 64 65 92.500 M 217 93 L 217 121 245 121 L 273 121 273 93 L 273 65 245 65 L 217 65 217 93 M 65 165 L 65 193 133 193 L 201 193 201 165 L 201 137 133 137 L 65 137 65 165 M 307.604 139.305 C 305.747 141.162, 304.965 143.839, 303.585 153.055 C 301.359 167.922, 301.442 167.699, 297.672 168.943 C 295.894 169.530, 292.009 171.611, 289.038 173.567 L 283.638 177.124 271.301 171.547 C 258.138 165.598, 255.837 165.330, 252.250 169.335 C 248.721 173.276, 234 200.165, 234 202.671 C 234 206.700, 235.348 208.147, 246.413 216 L 256.981 223.500 256.991 233.094 L 257 242.688 247.253 249.594 C 235.001 258.275, 234 259.296, 234 263.113 C 234 266.474, 249.664 295.062, 253.252 298.250 C 256.273 300.934, 258.751 300.438, 271.606 294.575 C 283.085 289.339, 283.587 289.207, 286 290.779 C 287.375 291.675, 291.415 294.009, 294.978 295.965 L 301.457 299.522 303.540 312.399 C 306.374 329.919, 304.943 329, 329.388 329 C 350.955 329, 352.240 328.644, 353.903 322.213 C 354.431 320.171, 355.371 314.900, 355.992 310.500 C 357.567 299.347, 357.605 299.268, 362.528 297.091 C 364.951 296.019, 368.902 293.788, 371.307 292.133 L 375.681 289.124 387.498 294.562 C 399.607 300.134, 401.817 300.703, 404.912 299.047 C 405.891 298.523, 411.043 290.510, 416.362 281.241 C 428.398 260.263, 428.530 261.450, 412.932 250.497 L 402 242.821 402 232.986 L 402 223.150 413.049 215.510 C 424.905 207.313, 427.021 204.568, 424.985 200.028 C 423.037 195.682, 407.830 169.973, 406.308 168.451 C 403.173 165.316, 400.489 165.749, 388.039 171.401 L 375.812 176.953 369.156 172.935 C 365.495 170.725, 361.526 168.672, 360.337 168.372 C 357.883 167.754, 357.807 167.509, 355.397 152.520 C 352.800 136.369, 353.853 137, 329.500 137 C 310.377 137, 309.854 137.055, 307.604 139.305 M 318.070 162.750 C 316.387 176.697, 315.888 179.120, 314.624 179.477 C 307.193 181.577, 300.054 185.081, 294.145 189.526 L 286.959 194.931 274.511 189.563 L 262.063 184.194 257.397 192.283 L 252.732 200.372 255.209 202.436 C 256.571 203.571, 261.619 207.328, 266.425 210.785 L 275.164 217.070 274.332 221.285 C 273.294 226.541, 273.254 239.034, 274.255 245 L 275.010 249.500 264.005 257.354 C 257.952 261.674, 253 265.408, 253 265.651 C 253 265.894, 255.047 269.643, 257.550 273.981 L 262.099 281.869 269.300 278.808 C 273.260 277.124, 278.891 274.691, 281.814 273.400 L 287.127 271.054 292.262 275.113 C 297.701 279.412, 306.035 283.927, 312.250 285.940 C 314.313 286.608, 316.014 287.683, 316.032 288.328 C 316.049 288.972, 316.710 294.225, 317.500 300 C 318.290 305.775, 318.951 311.063, 318.968 311.750 C 318.992 312.669, 321.784 313, 329.500 313 C 337.216 313, 340.008 312.669, 340.032 311.750 C 340.049 311.063, 340.710 305.775, 341.500 300 C 342.290 294.225, 342.951 288.972, 342.968 288.328 C 342.986 287.683, 344.688 286.608, 346.750 285.940 C 352.922 283.940, 361.287 279.422, 366.619 275.207 L 371.635 271.242 384.067 276.484 C 390.905 279.368, 396.798 281.561, 397.162 281.359 C 398.391 280.675, 406.087 265.950, 405.615 265.186 C 405.357 264.769, 400.389 261.069, 394.575 256.964 L 384.004 249.500 384.752 245 C 385.732 239.106, 385.709 225.486, 384.712 220.790 L 383.924 217.080 392.631 210.790 C 397.420 207.331, 402.445 203.574, 403.797 202.441 L 406.256 200.383 401.878 192.702 C 399.470 188.478, 397.049 185.016, 396.498 185.011 C 395.947 185.005, 390.173 187.256, 383.666 190.013 L 371.837 195.026 367.168 190.912 C 360.861 185.354, 355.521 182.348, 348.980 180.674 C 342.787 179.089, 343.568 180.936, 340.976 161.750 L 339.793 153 329.520 153 L 319.247 153 318.070 162.750 M 324.361 203.104 C 313.124 204.527, 302.614 213.639, 299.381 224.761 C 295.282 238.863, 302.231 254.044, 315.839 260.716 C 320.593 263.046, 322.782 263.491, 329.500 263.491 C 336.218 263.491, 338.407 263.046, 343.161 260.716 C 354.332 255.239, 360.401 245.482, 360.401 233 C 360.401 223.930, 358.088 218.088, 352.142 212.142 C 344.690 204.690, 335.483 201.695, 324.361 203.104 M 65 237 L 65 265 133 265 L 201 265 201 237 L 201 209 133 209 L 65 209 65 237 M 323.500 217.479 C 315.403 220.388, 310.633 229.478, 313.015 237.460 C 314.739 243.239, 320.785 248.695, 326.399 249.537 C 337.333 251.177, 346.231 243.704, 346.231 232.881 C 346.231 221.444, 334.529 213.516, 323.500 217.479" stroke="none" fill="#a7a7a7" fill-rule="evenodd"/></svg>