<svg xmlns="http://www.w3.org/2000/svg" width="621" height="469" viewBox="0 0 621 469" version="1.1"><path d="M 0.488 170 C 0.488 258.825, 0.606 295.163, 0.750 250.750 C 0.894 206.338, 0.894 133.663, 0.750 89.250 C 0.606 44.838, 0.488 81.175, 0.488 170 M 122.718 23.747 L 221.937 24.010 222.268 35.507 L 222.600 47.003 222.550 35.252 L 222.500 23.500 123 23.493 L 23.500 23.485 122.718 23.747 M 246.667 23.667 C 246.300 24.033, 246 29.433, 246 35.667 L 246 47 287 47 L 328 47 328 35 L 328 23 287.667 23 C 265.483 23, 247.033 23.300, 246.667 23.667 M 351.667 23.667 C 351.300 24.033, 351 29.433, 351 35.667 L 351 47 392 47 L 433 47 433 35 L 433 23 392.667 23 C 370.483 23, 352.033 23.300, 351.667 23.667 M 70.488 240 C 70.488 328.275, 70.606 364.388, 70.750 320.250 C 70.894 276.113, 70.894 203.888, 70.750 159.750 C 70.606 115.613, 70.488 151.725, 70.488 240 M 94.238 134.750 L 94 176 193.750 175.755 L 293.500 175.510 194.261 175.250 L 95.022 174.990 94.750 134.245 L 94.477 93.500 94.238 134.750 M 316.239 134.750 L 316.500 175.500 357.250 175.761 L 398 176.022 398 135.011 L 398 94 356.989 94 L 315.978 94 316.239 134.750 M 422 134.959 L 422 175.918 441.565 176.209 C 452.326 176.369, 470.776 176.363, 482.565 176.195 L 504 175.890 504 134.945 L 504 94 463 94 L 422 94 422 134.959 M 47 117 L 47 129 35.500 129 L 24 129 24 170 L 24 211 35.500 211 L 47 211 47 222.500 L 47 234 35.500 234 L 24 234 24 275 L 24 316 35.500 316 L 47 316 47 327.478 L 47 338.956 28.250 339.251 L 9.500 339.547 28.500 339.773 L 47.500 340 47.500 222.500 C 47.500 157.875, 47.388 105, 47.250 105 C 47.112 105, 47 110.400, 47 117 M 94 240 L 94 281 193.500 281 L 293 281 293 240 L 293 199 193.500 199 L 94 199 94 240 M 316.238 239.750 L 316 281 323.750 280.801 L 331.500 280.603 324.261 280.258 L 317.022 279.913 316.750 239.206 L 316.477 198.500 316.238 239.750 M 479.750 210.747 C 486.488 210.920, 497.512 210.920, 504.250 210.747 C 510.988 210.574, 505.475 210.432, 492 210.432 C 478.525 210.432, 473.012 210.574, 479.750 210.747 M 491.431 232.734 C 500.878 232.960, 504.987 233.418, 505.278 234.278 C 505.506 234.950, 505.644 234.825, 505.584 234 C 505.493 232.747, 503.213 232.493, 491.736 232.456 L 477.997 232.412 491.431 232.734 M 438.946 285.750 L 435.500 289.500 439.250 286.054 C 441.313 284.158, 443 282.471, 443 282.304 C 443 281.540, 442.154 282.260, 438.946 285.750 M 544 285.500 C 545.866 287.425, 547.617 289, 547.892 289 C 548.167 289, 546.866 287.425, 545 285.500 C 543.134 283.575, 541.383 282, 541.108 282 C 540.833 282, 542.134 283.575, 544 285.500 M 328.116 301.250 C 328.003 303.932, 327.851 304, 322 304 L 316 304 316.238 345.250 L 316.477 386.500 316.750 345.750 L 317.022 305 322.543 305 C 328.306 305, 329.651 303.976, 328.701 300.308 C 328.394 299.125, 328.192 299.451, 328.116 301.250 M 94 345 L 94 386 193.500 386 L 293 386 293 345 L 293 304 193.500 304 L 94 304 94 345 M 520.958 310.250 C 523.410 312.863, 525.548 315, 525.708 315 C 526.459 315, 525.665 314.102, 521.250 309.958 L 516.500 305.500 520.958 310.250 M 460.453 311.250 L 456.500 315.500 460.750 311.547 C 464.702 307.871, 465.460 307, 464.703 307 C 464.540 307, 462.627 308.913, 460.453 311.250 M 489.264 317.718 C 490.784 317.947, 493.034 317.941, 494.264 317.704 C 495.494 317.467, 494.250 317.279, 491.500 317.286 C 488.750 317.294, 487.744 317.488, 489.264 317.718 M 394.252 332.500 C 394.263 334.700, 394.468 335.482, 394.707 334.238 C 394.946 332.994, 394.937 331.194, 394.687 330.238 C 394.437 329.282, 394.241 330.300, 394.252 332.500 M 566.252 332.500 C 566.263 334.700, 566.468 335.482, 566.707 334.238 C 566.946 332.994, 566.937 331.194, 566.687 330.238 C 566.437 329.282, 566.241 330.300, 566.252 332.500 M 416.310 339.500 C 416.315 342.800, 416.502 344.029, 416.725 342.232 C 416.947 340.435, 416.943 337.735, 416.715 336.232 C 416.486 334.729, 416.304 336.200, 416.310 339.500 M 449.310 339.500 C 449.315 342.800, 449.502 344.029, 449.725 342.232 C 449.947 340.435, 449.943 337.735, 449.715 336.232 C 449.486 334.729, 449.304 336.200, 449.310 339.500 M 589.300 339 C 589.300 342.025, 589.487 343.262, 589.716 341.750 C 589.945 340.238, 589.945 337.762, 589.716 336.250 C 589.487 334.738, 589.300 335.975, 589.300 339 M 394.252 346.500 C 394.263 348.700, 394.468 349.482, 394.707 348.238 C 394.946 346.994, 394.937 345.194, 394.687 344.238 C 394.437 343.282, 394.241 344.300, 394.252 346.500 M 475 354.500 C 476.866 356.425, 478.617 358, 478.892 358 C 479.167 358, 477.866 356.425, 476 354.500 C 474.134 352.575, 472.383 351, 472.108 351 C 471.833 351, 473.134 352.575, 475 354.500 M 489.762 361.707 C 491.006 361.946, 492.806 361.937, 493.762 361.687 C 494.718 361.437, 493.700 361.241, 491.500 361.252 C 489.300 361.263, 488.518 361.468, 489.762 361.707 M 521 368.500 C 518.571 370.975, 516.809 373, 517.084 373 C 517.359 373, 519.571 370.975, 522 368.500 C 524.429 366.025, 526.191 364, 525.916 364 C 525.641 364, 523.429 366.025, 521 368.500 M 461 368.500 C 462.866 370.425, 464.617 372, 464.892 372 C 465.167 372, 463.866 370.425, 462 368.500 C 460.134 366.575, 458.383 365, 458.108 365 C 457.833 365, 459.134 366.575, 461 368.500 M 505.079 443.722 C 505.002 445.890, 504.671 445.951, 491.250 446.252 L 477.500 446.561 491.281 446.781 C 502.614 446.961, 505.163 446.739, 505.626 445.533 C 505.935 444.726, 505.957 443.489, 505.673 442.783 C 505.390 442.077, 505.122 442.500, 505.079 443.722 M 480.750 468.747 C 486.938 468.922, 497.063 468.922, 503.250 468.747 C 509.438 468.571, 504.375 468.428, 492 468.428 C 479.625 468.428, 474.563 468.571, 480.750 468.747" stroke="none" fill="#e8e8e8" fill-rule="evenodd"/><path d="M 0.039 4.750 L 0.078 9.500 1.460 6.323 C 2.220 4.576, 4.115 2.457, 5.671 1.613 L 8.500 0.080 4.250 0.040 L 0 0 0.039 4.750 M 450.744 1.029 C 451.978 1.525, 453.889 3.409, 454.990 5.215 C 456.810 8.200, 456.993 10.256, 456.996 27.750 L 457 47 339.500 47 L 222 47 222 35.500 L 222 24 123 24 L 24 24 24 64.500 L 24 105 35.750 105 L 47.500 105 47.500 222.500 L 47.500 340 29.218 340 C 8.618 340, 5.345 339.255, 2.026 333.810 L 0.007 330.500 0.004 399.750 L 0 469 235.250 468.898 C 364.637 468.841, 469.040 468.449, 467.256 468.025 C 460.240 466.360, 459.077 463.833, 455.889 443.317 L 453.529 428.134 447.796 425.487 C 444.643 424.031, 439.359 421.092, 436.053 418.956 L 430.044 415.072 414.851 422.036 C 399.553 429.048, 395.405 430.053, 390.665 427.893 C 387.015 426.230, 363 384.354, 363 379.653 C 363 374.739, 365.661 372.014, 381.152 361.069 L 394.500 351.638 394.500 339.503 L 394.500 327.369 380.607 317.434 C 366.387 307.265, 363.010 303.660, 363.004 298.638 C 362.999 294.938, 385.186 255.862, 389.218 252.470 C 392.004 250.125, 394.182 249.527, 398.336 249.962 C 399.346 250.068, 406.994 253.215, 415.332 256.956 L 430.493 263.757 434.703 260.860 C 437.019 259.267, 442.196 256.390, 446.206 254.468 L 453.499 250.973 456.258 233.807 C 458.162 221.952, 459.555 216.034, 460.758 214.682 C 464.483 210.495, 467.786 210, 492 210 C 517.461 210, 520.704 210.593, 523.361 215.730 C 524.182 217.319, 526.024 225.766, 527.453 234.502 C 528.883 243.238, 530.203 250.537, 530.388 250.721 C 530.573 250.906, 534.410 252.840, 538.915 255.018 C 543.421 257.197, 548.545 260.068, 550.303 261.399 L 553.500 263.817 568.956 256.809 C 578.136 252.646, 585.759 249.800, 587.729 249.800 C 594.194 249.800, 594.765 250.546, 613.882 283.930 L 621 296.359 621 148.180 L 621 0 534.750 0.063 C 482.434 0.102, 449.383 0.482, 450.744 1.029 M 77.096 71.265 C 75.774 71.944, 73.749 73.770, 72.596 75.323 L 70.500 78.147 70.500 240 L 70.500 401.853 72.596 404.677 C 73.749 406.230, 75.774 408.056, 77.096 408.735 C 78.967 409.697, 108.160 409.974, 208.750 409.985 C 279.837 409.993, 338 409.750, 338 409.445 C 338 409.139, 336.472 406.010, 334.604 402.490 C 332.736 398.970, 330.626 393.820, 329.915 391.045 L 328.622 386 322.811 386 L 317 386 317 345.550 L 317 305.100 322.750 304.800 L 328.500 304.500 328.751 297.500 C 328.890 293.650, 329.669 288.531, 330.483 286.125 C 331.297 283.719, 331.720 281.356, 331.423 280.875 C 331.125 280.394, 327.759 280, 323.941 280 L 317 280 317 239.500 L 317 199 357.500 199 L 398 199 398 206.955 L 398 214.909 401.750 215.517 C 404.696 215.994, 416.570 219.847, 421.220 221.833 C 421.649 222.017, 422 216.954, 422 210.583 L 422 199 425.880 199 C 429.402 199, 430.134 198.504, 433.819 193.623 C 438.442 187.501, 447.508 181.029, 455.237 178.335 C 459.889 176.713, 463.981 176.500, 490.500 176.500 C 507 176.500, 521.962 176.826, 523.750 177.225 L 527 177.950 527 128.425 C 527 74.096, 527.056 74.632, 521.033 71.517 C 518.437 70.174, 492.884 70.002, 298.800 70.015 C 126.743 70.026, 78.982 70.296, 77.096 71.265 M 95 134.500 L 95 175 194 175 L 293 175 293 134.500 L 293 94 194 94 L 95 94 95 134.500 M 476.608 248.250 C 474.135 269.465, 475.164 267.402, 465.565 270.394 C 456.852 273.111, 444.783 280.291, 439.563 285.864 C 437.948 287.589, 436.128 289, 435.519 289 C 434.910 289, 427.058 285.836, 418.070 281.969 C 409.082 278.102, 401.632 275.065, 401.516 275.219 C 400.273 276.862, 389.896 296.207, 390.154 296.399 C 390.344 296.541, 397.025 301.293, 405 306.960 C 412.975 312.627, 419.579 317.321, 419.676 317.391 C 419.773 317.462, 419.226 320.440, 418.461 324.010 C 416.710 332.183, 416.679 345.461, 418.391 354.310 L 419.709 361.120 416.605 363.423 C 414.897 364.690, 408.325 369.455, 402 374.012 C 395.675 378.569, 390.330 382.438, 390.122 382.610 C 389.844 382.840, 400.109 401.914, 401.516 403.781 C 401.633 403.935, 409.082 400.898, 418.070 397.031 C 427.058 393.164, 434.767 390, 435.201 390 C 435.635 390, 438.805 392.275, 442.245 395.057 C 449.137 400.628, 464.031 408.540, 469.590 409.583 C 471.926 410.021, 473.413 410.978, 473.928 412.375 C 474.359 413.544, 475.534 421.587, 476.540 430.250 L 478.369 446 491.560 446 L 504.750 446 505.275 443.250 C 505.563 441.738, 506.614 433.871, 507.610 425.769 L 509.421 411.037 515.961 408.947 C 524.098 406.345, 534.094 400.990, 540 396.068 C 548.392 389.073, 547.031 389.107, 562.046 395.531 C 569.446 398.697, 576.926 401.889, 578.670 402.624 L 581.839 403.960 587.420 393.969 C 590.489 388.475, 593 383.611, 593 383.161 C 593 382.711, 586.443 377.653, 578.429 371.921 L 563.859 361.500 564.447 358 C 567.034 342.594, 567.040 332.827, 564.471 320.483 C 563.860 317.549, 564.251 317.175, 578.852 306.738 L 593.860 296.009 588.353 286.255 C 585.325 280.890, 582.518 276.160, 582.117 275.743 C 581.715 275.327, 573.883 278.183, 564.711 282.089 L 548.034 289.190 541.767 283.563 C 534.608 277.135, 522.581 270.678, 514.734 269.049 L 509.379 267.937 507.605 252.718 C 506.629 244.348, 505.595 236.488, 505.307 235.250 C 504.796 233.057, 504.450 233, 491.585 233 L 478.386 233 476.608 248.250 M 480.746 299.086 C 470.534 301.492, 459.261 310.281, 454.196 319.784 C 445.550 336.006, 448.484 355.591, 461.517 368.641 C 484.133 391.287, 524.520 380.976, 532.450 350.530 C 537.213 332.243, 530.177 314.381, 514.164 304.105 C 505.806 298.742, 491.391 296.577, 480.746 299.086 M 619.280 304.250 C 618.708 305.488, 611.746 310.971, 603.809 316.435 L 589.379 326.370 589.379 339.234 L 589.379 352.099 603.787 362.167 C 614.138 369.400, 618.579 373.117, 619.559 375.367 C 620.741 378.085, 620.927 373.432, 620.961 340.250 C 620.982 319.212, 620.847 302, 620.661 302 C 620.474 302, 619.853 303.012, 619.280 304.250 M 482.411 319.423 C 477.316 321.641, 472.113 327.804, 470.421 333.624 C 467.918 342.233, 469.913 348.979, 476.805 355.204 C 487.320 364.704, 503.606 362.354, 510.658 350.320 C 519.421 335.368, 509.032 317.923, 491.434 318.039 C 488.170 318.061, 484.110 318.684, 482.411 319.423 M 609 403.287 C 602.675 414.404, 596.297 424.738, 594.827 426.250 C 590.389 430.816, 586.143 430.133, 568.345 421.993 L 553.025 414.985 548.177 418.468 C 545.511 420.384, 540.375 423.334, 536.763 425.024 L 530.197 428.096 529.195 433.798 C 528.645 436.934, 527.394 444.523, 526.417 450.663 C 525.440 456.802, 523.916 462.785, 523.032 463.958 C 522.147 465.131, 519.641 466.725, 517.462 467.501 C 513.960 468.748, 519.738 468.917, 567.250 468.956 L 621 469 621 426 C 621 402.350, 620.888 383.017, 620.750 383.037 C 620.612 383.058, 615.325 392.170, 609 403.287" stroke="none" fill="#ffffff" fill-rule="evenodd"/><path d="M 7.378 1.437 C 0.450 4.452, 1 -10.055, 1 169.823 L 1 332.200 4.400 335.600 L 7.800 339 27.400 339 L 47 339 47 327.500 L 47 316 35.500 316 L 24 316 24 275 L 24 234 35.500 234 L 47 234 47 222.500 L 47 211 35.500 211 L 24 211 24 170 L 24 129 35.500 129 L 47 129 47 117 L 47 105 35.500 105 L 24 105 24 63.995 L 24 22.990 123.250 23.245 L 222.500 23.500 222.782 35.250 L 223.063 47 234.500 47 L 245.937 47 246.218 35.250 L 246.500 23.500 287.250 23.239 L 328 22.978 328 34.989 L 328 47 339.468 47 L 350.937 47 351.218 35.250 L 351.500 23.500 392.250 23.239 L 433 22.978 433 34.989 L 433 47 445 47 L 457 47 457 28.968 C 457 8.638, 456.242 5.337, 450.810 2.026 C 447.516 0.017, 446.427 0.008, 229 0.043 C 47.139 0.072, 9.977 0.306, 7.378 1.437 M 79.500 70.850 C 76.424 71.850, 74.537 73.269, 72.690 75.973 C 71.121 78.269, 71 89.988, 71 240.146 L 71 401.847 73.564 404.894 C 74.975 406.570, 77.787 408.402, 79.814 408.965 C 82.239 409.639, 127.033 409.991, 210.734 409.994 L 337.968 410 334.014 402.250 C 331.840 397.988, 329.691 392.700, 329.239 390.500 L 328.418 386.500 322.209 386.202 L 316 385.905 316 344.952 L 316 304 321.857 304 L 327.714 304 328.247 296.232 C 328.539 291.960, 329.481 286.785, 330.338 284.732 L 331.898 281 323.949 281 L 316 281 316 240 L 316 199 357 199 L 398 199 398 207 L 398 215 401.250 215.021 C 403.038 215.033, 407.650 216.192, 411.500 217.598 C 415.350 219.004, 419.288 220.397, 420.250 220.694 C 421.844 221.185, 422 220.243, 422 210.117 L 422 199 426 199 C 428.200 199, 430 198.576, 430 198.057 C 430 197.538, 432.543 194.368, 435.650 191.011 C 441.756 184.416, 447.593 180.528, 455.487 177.799 L 460.500 176.065 441.250 176.033 L 422 176 422 135 L 422 94 463 94 L 504 94 504 135 L 504 176 512.375 176 C 516.981 176, 522.156 176.281, 523.875 176.625 L 527 177.250 526.996 128.375 C 526.993 81.117, 526.926 79.390, 524.974 76.190 C 520.914 69.531, 537.967 69.990, 298.782 70.100 C 179.277 70.155, 80.600 70.492, 79.500 70.850 M 94 135 L 94 176 193.500 176 L 293 176 293 135 L 293 94 193.500 94 L 94 94 94 135 M 316.239 134.750 L 316.500 175.500 357.250 175.761 L 398 176.022 398 135.011 L 398 94 356.989 94 L 315.978 94 316.239 134.750 M 94 240 L 94 281 193.500 281 L 293 281 293 240 L 293 199 193.500 199 L 94 199 94 240 M 462.575 214.250 C 459.660 217.187, 459.182 218.559, 457.609 228.500 C 456.651 234.550, 455.413 242.244, 454.858 245.598 L 453.848 251.695 448.444 253.935 C 445.471 255.167, 440.289 257.953, 436.927 260.125 C 433.232 262.513, 430.124 263.857, 429.067 263.521 C 428.106 263.216, 420.893 260.049, 413.039 256.483 C 397.965 249.639, 395.627 249.107, 391.046 251.476 C 386.849 253.646, 363.595 294.006, 363.566 299.170 C 363.539 303.978, 364.756 305.218, 381.097 317.035 L 394.714 326.882 394.714 339.433 L 394.714 351.984 380.381 362.242 C 365.525 372.874, 362.194 376.651, 363.406 381.483 C 363.726 382.755, 369.453 393.313, 376.133 404.945 C 388.494 426.468, 390.594 429, 396.089 429 C 397.293 429, 405.222 425.850, 413.709 422 C 422.196 418.150, 429.544 415, 430.037 415 C 430.529 415, 433.554 416.688, 436.758 418.750 C 441.140 421.570, 451.098 426.705, 453.681 427.475 C 453.781 427.505, 455.093 435.173, 456.598 444.515 C 459.207 460.715, 459.483 461.650, 462.567 464.750 L 465.800 468 490.950 468 C 517.772 468, 520.561 467.558, 523.046 462.913 C 523.655 461.777, 525.247 454.244, 526.586 446.174 C 527.924 438.103, 529.224 430.600, 529.476 429.500 C 529.757 428.269, 531.665 426.793, 534.439 425.662 C 536.917 424.651, 541.995 421.849, 545.723 419.434 C 549.450 417.019, 552.844 415.033, 553.264 415.021 C 553.685 415.010, 561.088 418.194, 569.717 422.098 C 586.875 429.861, 590.180 430.350, 594.598 425.781 C 595.812 424.526, 602.023 414.467, 608.402 403.426 C 621.091 381.462, 622.038 378.435, 617.750 373.547 C 616.513 372.137, 609.504 366.806, 602.176 361.701 L 588.852 352.420 588.676 339.391 L 588.500 326.362 602.864 316.438 C 610.764 310.979, 617.851 305.623, 618.614 304.534 C 621.797 299.990, 620.498 296.268, 608.467 275.453 C 596.230 254.284, 592.797 250, 588.070 250 C 586.476 250, 578.151 253.150, 569.570 257 C 560.989 260.850, 553.766 264, 553.518 264 C 553.270 264, 550.404 262.278, 547.148 260.174 C 543.892 258.069, 538.693 255.257, 535.595 253.924 C 532.008 252.381, 529.785 250.773, 529.476 249.500 C 529.208 248.400, 527.885 240.525, 526.535 232 C 524.220 217.377, 523.908 216.344, 521.025 213.750 L 517.968 211 491.884 211 L 465.800 211 462.575 214.250 M 477.692 235.723 C 477.377 237.800, 476.347 245.875, 475.405 253.668 L 473.691 267.835 470.101 268.509 C 460.968 270.222, 448.088 277.191, 439.610 285.005 L 435.459 288.832 419.479 281.950 C 410.691 278.166, 402.963 275.053, 402.307 275.034 C 400.764 274.990, 389.634 294.607, 390.269 296.252 C 390.534 296.938, 397.120 302, 404.905 307.500 C 417.660 316.512, 419.010 317.747, 418.563 320 C 416.114 332.326, 415.791 340.822, 417.388 350.900 C 418.293 356.619, 418.914 361.379, 418.767 361.477 C 417.047 362.626, 392.943 379.790, 391.335 381.011 L 389.169 382.655 395.133 393.327 C 398.413 399.197, 401.637 403.984, 402.298 403.966 C 402.959 403.947, 410.653 400.851, 419.394 397.086 L 435.289 390.241 441.318 395.100 C 448.250 400.685, 459.973 407.001, 468.102 409.529 L 473.704 411.272 475.411 425.386 C 476.350 433.149, 477.377 441.200, 477.692 443.277 L 478.264 447.055 491.847 446.777 L 505.430 446.500 507.161 433 C 510.258 408.854, 509.248 411.601, 515.786 409.551 C 525.934 406.369, 537.024 400.008, 544.068 393.331 L 547.637 389.949 564.299 396.974 C 573.463 400.838, 581.307 403.992, 581.730 403.983 C 583.097 403.953, 594.286 382.883, 593.377 382.050 C 592.895 381.608, 586.075 376.635, 578.222 370.999 C 567.764 363.493, 564.081 360.316, 564.455 359.126 C 567.205 350.377, 567.749 334.275, 565.635 324.184 L 564.312 317.868 579.156 307.257 C 587.320 301.420, 594 296.320, 594 295.922 C 594 295.524, 591.287 290.471, 587.971 284.692 L 581.943 274.186 565.176 281.424 L 548.410 288.662 542.455 283.292 C 535.615 277.125, 521.169 269.448, 514.530 268.452 C 512.038 268.079, 509.966 267.262, 509.924 266.636 C 509.882 266.011, 508.869 258.075, 507.674 249 L 505.500 232.500 491.882 232.223 L 478.264 231.945 477.692 235.723 M 483 299.098 C 471.010 301.440, 458.547 311.329, 453.196 322.747 C 450.780 327.902, 450.500 329.643, 450.500 339.500 C 450.500 349.377, 450.777 351.092, 453.216 356.296 C 456.680 363.690, 466.173 373.278, 473.204 376.484 C 490.119 384.196, 509.925 380.409, 522.239 367.108 C 528.751 360.075, 531.579 354.398, 532.999 345.506 C 535.135 332.138, 530.739 319.727, 520.467 310.118 C 509.591 299.944, 497.252 296.315, 483 299.098 M 94 345 L 94 386 193.500 386 L 293 386 293 345 L 293 304 193.500 304 L 94 304 94 345 M 483.519 318.598 C 475.231 321.632, 469.063 330.433, 469.022 339.282 C 468.935 358.233, 491.529 368.655, 505.946 356.314 C 511.546 351.521, 514 346.400, 514 339.508 C 514 332.543, 512.275 328.334, 507.533 323.729 C 501.183 317.562, 491.817 315.561, 483.519 318.598" stroke="none" fill="#4795da" fill-rule="evenodd"/></svg>