<svg xmlns="http://www.w3.org/2000/svg" width="426" height="330" viewBox="0 0 426 330" version="1.1"><path d="M 81.250 0.750 C 122.913 0.894, 191.088 0.894, 232.750 0.750 C 274.413 0.605, 240.325 0.487, 157 0.487 C 73.675 0.487, 39.588 0.605, 81.250 0.750 M 0.483 117 C 0.483 177.225, 0.603 201.862, 0.750 171.750 C 0.897 141.637, 0.897 92.362, 0.750 62.250 C 0.603 32.137, 0.483 56.775, 0.483 117 M 50.750 16.750 C 69.587 16.902, 100.412 16.902, 119.250 16.750 C 138.087 16.597, 122.675 16.473, 85 16.473 C 47.325 16.473, 31.912 16.597, 50.750 16.750 M 169.667 16.667 C 169.300 17.033, 169 20.858, 169 25.167 L 169 33 197.250 33.002 L 225.500 33.005 225.177 24.502 L 224.853 16 197.593 16 C 182.600 16, 170.033 16.300, 169.667 16.667 M 241.682 16.651 C 241.307 17.026, 241 20.858, 241 25.167 L 241 33 269.540 33 L 298.081 33 297.790 24.750 L 297.500 16.500 269.932 16.235 C 254.770 16.088, 242.057 16.276, 241.682 16.651 M 130.329 48.750 C 172.034 48.894, 239.984 48.894, 281.329 48.750 C 322.673 48.605, 288.550 48.487, 205.500 48.487 C 122.450 48.487, 88.623 48.605, 130.329 48.750 M 217 93.016 L 217 121.031 245.250 120.766 L 273.500 120.500 273.766 92.750 L 274.032 65 245.516 65 L 217 65 217 93.016 M 289 92.441 C 289 111.043, 289.349 120.097, 290.082 120.551 C 290.768 120.975, 290.143 122.367, 288.370 124.360 C 286.833 126.087, 287.899 125.178, 290.739 122.340 C 299.042 114.041, 303.033 113, 326.538 113 L 346 113 346 89 L 346 65 317.500 65 L 289 65 289 92.441 M 20.750 72.732 C 23.087 72.943, 26.912 72.943, 29.250 72.732 C 31.587 72.522, 29.675 72.349, 25 72.349 C 20.325 72.349, 18.412 72.522, 20.750 72.732 M 17 117 L 17 145 25 145 L 33 145 33 117 L 33 89 25 89 L 17 89 17 117 M 98.750 120.750 C 117.587 120.902, 148.412 120.902, 167.250 120.750 C 186.087 120.597, 170.675 120.473, 133 120.473 C 95.325 120.473, 79.912 120.597, 98.750 120.750 M 320.199 136.744 C 324.984 136.927, 333.084 136.928, 338.199 136.746 C 343.315 136.564, 339.400 136.414, 329.500 136.413 C 319.600 136.412, 315.415 136.561, 320.199 136.744 M 65 165 L 65 193 133 193 L 201 193 201 165 L 201 137 133 137 L 65 137 65 165 M 217.428 159 C 217.428 171.375, 217.571 176.438, 217.747 170.250 C 217.922 164.063, 217.922 153.938, 217.747 147.750 C 217.571 141.563, 217.428 146.625, 217.428 159 M 273.116 141.191 C 273.052 143.771, 273.356 146.102, 273.791 146.371 C 274.226 146.640, 274.425 145.204, 274.233 143.180 C 273.647 136.996, 273.238 136.267, 273.116 141.191 M 17 189 L 17 217 25 217 L 33 217 33 189 L 33 161 25 161 L 17 161 17 189 M 315.825 177.326 C 315.452 179.151, 315.592 179.808, 316.218 179.182 C 316.751 178.649, 317.011 177.377, 316.794 176.356 C 316.503 174.981, 316.251 175.233, 315.825 177.326 M 368 192.500 C 369.866 194.425, 371.617 196, 371.892 196 C 372.167 196, 370.866 194.425, 369 192.500 C 367.134 190.575, 365.383 189, 365.108 189 C 364.833 189, 366.134 190.575, 368 192.500 M 288.924 193.750 L 286.500 196.500 289.250 194.076 C 290.762 192.742, 292 191.505, 292 191.326 C 292 190.541, 291.190 191.180, 288.924 193.750 M 209.286 202.500 C 209.294 205.250, 209.488 206.256, 209.718 204.736 C 209.947 203.216, 209.941 200.966, 209.704 199.736 C 209.467 198.506, 209.279 199.750, 209.286 202.500 M 65 237 L 65 265 133 265 L 201 265 201 237 L 201 209 133 209 L 65 209 65 237 M 316.924 221.750 L 314.500 224.500 317.250 222.076 C 318.762 220.742, 320 219.505, 320 219.326 C 320 218.541, 319.190 219.180, 316.924 221.750 M 215.750 221.998 C 216.566 222.913, 217 226.734, 217 233 C 217 239.266, 216.566 243.087, 215.750 244.002 C 214.687 245.194, 214.761 245.206, 216.250 244.079 C 217.707 242.977, 218 241.119, 218 233 C 218 224.881, 217.707 223.023, 216.250 221.921 C 214.761 220.794, 214.687 220.806, 215.750 221.998 M 385.336 233 C 385.336 237.125, 385.513 238.813, 385.728 236.750 C 385.944 234.688, 385.944 231.313, 385.728 229.250 C 385.513 227.188, 385.336 228.875, 385.336 233 M 402.336 233 C 402.336 237.125, 402.513 238.813, 402.728 236.750 C 402.944 234.688, 402.944 231.313, 402.728 229.250 C 402.513 227.188, 402.336 228.875, 402.336 233 M 256.320 233 C 256.320 236.575, 256.502 238.037, 256.723 236.250 C 256.945 234.463, 256.945 231.537, 256.723 229.750 C 256.502 227.963, 256.320 229.425, 256.320 233 M 273.328 233.500 C 273.333 237.350, 273.513 238.802, 273.730 236.728 C 273.946 234.653, 273.943 231.503, 273.722 229.728 C 273.501 227.952, 273.324 229.650, 273.328 233.500 M 14.750 233.740 C 18.188 233.936, 23.813 233.936, 27.250 233.740 C 30.688 233.545, 27.875 233.385, 21 233.385 C 14.125 233.385, 11.313 233.545, 14.750 233.740 M 317 244.500 C 318.292 245.875, 319.574 247, 319.849 247 C 320.124 247, 319.292 245.875, 318 244.500 C 316.708 243.125, 315.426 242, 315.151 242 C 314.876 242, 315.708 243.125, 317 244.500 M 340.924 244.750 L 338.500 247.500 341.250 245.076 C 342.762 243.742, 344 242.505, 344 242.326 C 344 241.541, 343.190 242.180, 340.924 244.750 M 327.762 249.707 C 329.006 249.946, 330.806 249.937, 331.762 249.687 C 332.718 249.437, 331.700 249.241, 329.500 249.252 C 327.300 249.263, 326.518 249.468, 327.762 249.707 M 304 252.313 C 304 252.485, 305.462 253.948, 307.250 255.563 L 310.500 258.500 307.563 255.250 C 304.825 252.221, 304 251.540, 304 252.313 M 351.924 254.750 L 349.500 257.500 352.250 255.076 C 353.762 253.742, 355 252.505, 355 252.326 C 355 251.541, 354.190 252.180, 351.924 254.750 M 209.286 263.500 C 209.294 266.250, 209.488 267.256, 209.718 265.736 C 209.947 264.216, 209.941 261.966, 209.704 260.736 C 209.467 259.506, 209.279 260.750, 209.286 263.500 M 424.144 267.750 C 423.053 270.300, 423.078 270.359, 424.484 268.559 C 425.318 267.491, 426 266.254, 426 265.809 C 426 264.289, 425.322 264.999, 424.144 267.750 M 135 281 L 55.500 281.518 134.691 281.759 C 186.668 281.917, 214.094 281.656, 214.500 281 C 214.840 280.450, 214.979 280.108, 214.809 280.241 C 214.639 280.373, 178.725 280.715, 135 281 M 315.825 288.674 C 316.251 290.767, 316.503 291.019, 316.794 289.644 C 317.011 288.623, 316.751 287.351, 316.218 286.818 C 315.592 286.192, 315.452 286.849, 315.825 288.674 M 320.302 329.746 C 325.693 329.926, 334.243 329.925, 339.302 329.744 C 344.361 329.563, 339.950 329.416, 329.500 329.417 C 319.050 329.418, 314.911 329.566, 320.302 329.746" stroke="none" fill="#e8e8e8" fill-rule="evenodd"/><path d="M 0.136 4.250 C 0.211 6.588, 0.466 7.496, 0.703 6.270 C 0.940 5.043, 2.289 3.131, 3.702 2.020 L 6.270 -0 3.135 -0 C 0.092 -0, 0.004 0.125, 0.136 4.250 M 311.077 2.923 L 314 5.846 314 19.423 L 314 33 233.500 33 L 153 33 153 25 L 153 17 85 17 L 17 17 17 44.500 L 17 72 25 72 L 33 72 33 153 L 33 234 21.750 233.994 C 7.423 233.987, 3.300 232.908, 1.462 228.682 C 0.260 225.918, 0.073 232.365, 0.039 277.750 L 0 330 155.750 329.960 C 292.356 329.925, 311.172 329.742, 308.831 328.470 C 305.636 326.735, 304.671 323.921, 302.422 309.781 C 300.741 299.209, 300.674 299.048, 297.578 298.026 C 295.851 297.456, 292.051 295.417, 289.132 293.495 C 286.213 291.573, 283.660 290, 283.457 290 C 283.254 290, 277.625 292.431, 270.948 295.403 C 260.668 299.978, 258.342 300.672, 255.768 299.934 C 254.096 299.454, 252.579 298.913, 252.397 298.730 C 250.771 297.105, 233 265.101, 233 263.799 C 233 259.990, 235.616 257.148, 245.811 249.881 L 256.500 242.261 256.412 233.094 L 256.324 223.927 245.912 216.391 C 235.534 208.879, 233.103 206.263, 233.035 202.534 C 232.989 199.950, 249.460 171.151, 252.643 168.250 C 256.245 164.967, 259.342 165.421, 272.004 171.090 L 283.374 176.179 286.937 174.026 C 288.897 172.842, 292.863 170.744, 295.750 169.363 C 298.637 167.983, 301.008 166.549, 301.018 166.177 C 301.109 162.812, 305.053 141.770, 305.884 140.217 C 307.689 136.843, 312.449 136, 329.681 136 C 353.750 136, 353.619 135.904, 356.555 155.673 L 358.215 166.846 362.857 168.845 C 365.411 169.945, 369.207 172.005, 371.294 173.422 C 373.381 174.840, 375.463 176, 375.920 176 C 376.377 176, 381.645 173.757, 387.626 171.015 C 399.789 165.439, 403.634 164.882, 406.699 168.250 C 407.826 169.488, 412.255 176.575, 416.543 184 C 420.830 191.425, 424.712 197.927, 425.169 198.450 C 425.626 198.972, 426 154.535, 426 99.700 L 426 0 367.077 0 L 308.154 0 311.077 2.923 M 53.500 49.155 C 48.818 51.715, 49 47.050, 49 164.757 C 49 235.493, 49.357 276.799, 49.979 277.961 C 50.517 278.967, 52.384 280.287, 54.128 280.895 C 57.545 282.086, 213.113 282.553, 214.290 281.376 C 214.634 281.033, 213.924 278.896, 212.714 276.626 C 210.916 273.253, 210.515 270.858, 210.516 263.500 C 210.518 255.642, 210.864 253.843, 213.240 249.321 C 214.737 246.472, 216.421 243.858, 216.981 243.512 C 217.557 243.156, 218 238.771, 218 233.432 C 218 224.559, 217.820 223.735, 215.055 219.917 C 208.682 211.120, 208.402 198.277, 214.335 186.919 L 218 179.902 218 158.451 L 218 137 245.500 137 L 273 137 273 141.474 C 273 145.476, 273.331 146.120, 276.133 147.569 C 279.914 149.524, 280.499 148.877, 281.335 141.819 C 282.685 130.419, 291.394 118.867, 301.485 115.092 C 306.514 113.210, 309.212 113, 328.379 113 C 348.826 113, 352.943 113.450, 360.250 116.487 C 361.895 117.170, 362 115.316, 362 85.530 L 362 53.846 359.077 50.923 L 356.154 48 205.827 48.030 C 98.944 48.052, 54.922 48.377, 53.500 49.155 M 65 92.500 L 65 120 133 120 L 201 120 201 92.500 L 201 65 133 65 L 65 65 65 92.500 M 319.916 153.214 C 319.869 153.371, 319.082 159.290, 318.166 166.368 L 316.500 179.236 309.500 181.742 C 302.097 184.394, 293.978 189.265, 290.122 193.371 L 287.802 195.839 277.151 191.338 C 271.293 188.862, 265.508 186.442, 264.297 185.961 C 262.302 185.168, 261.694 185.809, 257.885 192.708 L 253.677 200.331 256.589 202.674 C 258.190 203.963, 263.170 207.601, 267.656 210.759 C 275.404 216.212, 275.780 216.650, 275.156 219.500 C 274.300 223.416, 274.309 242.643, 275.169 246.500 C 275.814 249.392, 275.444 249.782, 264.919 257.299 C 258.914 261.588, 254 265.486, 254 265.961 C 254 266.874, 261.959 281, 262.474 281 C 262.639 281, 268.096 278.750, 274.599 276 C 281.102 273.250, 286.815 271, 287.293 271 C 287.772 271, 290.039 272.500, 292.332 274.333 C 298.371 279.161, 303.529 282.081, 310.423 284.576 L 316.500 286.775 318.166 299.637 C 319.082 306.712, 319.869 312.613, 319.916 312.750 C 319.962 312.887, 324.245 313, 329.433 313 C 340.348 313, 339.326 314.152, 340.971 300 C 342.613 285.872, 342.269 286.596, 348.248 284.711 C 354.152 282.850, 364.135 277.165, 368.055 273.433 C 369.460 272.095, 371.125 271, 371.754 271 C 372.384 271, 378.193 273.244, 384.664 275.986 C 391.134 278.728, 396.730 280.640, 397.099 280.236 C 397.467 279.831, 399.538 276.343, 401.701 272.484 L 405.633 265.469 394.391 257.488 C 383.525 249.775, 383.171 249.407, 383.824 246.504 C 384.608 243.022, 384.738 222.659, 384 219.065 C 383.559 216.918, 384.805 215.691, 394.500 208.720 C 400.550 204.370, 405.419 200.497, 405.319 200.114 C 405.086 199.214, 396.896 185, 396.611 185 C 396.492 185, 390.793 187.414, 383.947 190.365 L 371.500 195.731 366.500 191.218 C 361.271 186.499, 351.796 181.432, 346.250 180.389 C 344.462 180.052, 342.962 179.715, 342.916 179.639 C 342.869 179.562, 342.080 173.650, 341.162 166.500 L 339.493 153.500 329.747 153.214 C 324.386 153.056, 319.962 153.056, 319.916 153.214 M 319.005 203.608 C 305.503 208.512, 298 219.120, 298 233.308 C 298 239.524, 298.478 241.637, 301.047 246.778 C 306.438 257.567, 314.850 263.054, 327.127 263.787 C 336.506 264.347, 343.029 262.417, 349.770 257.085 C 359.848 249.116, 363.766 234.309, 359.081 221.898 C 356.563 215.225, 349.982 208.138, 343.300 204.903 C 337.147 201.924, 325.370 201.296, 319.005 203.608 M 424.797 207.109 C 424.594 207.719, 419.542 211.656, 413.572 215.859 L 402.717 223.500 402.608 232.895 L 402.500 242.290 412.983 249.680 C 418.749 253.744, 424.021 258.066, 424.698 259.285 C 425.697 261.083, 425.936 256.270, 425.965 233.750 C 425.984 218.488, 425.813 206, 425.583 206 C 425.354 206, 425 206.499, 424.797 207.109 M 322.500 218.356 C 306.697 225.672, 312.026 249, 329.500 249 C 338.041 249, 344.782 243.110, 345.715 234.834 C 346.761 225.557, 340.227 217.942, 330.678 217.310 C 327.648 217.110, 324.255 217.544, 322.500 218.356 M 416.176 282.910 C 404.167 303.626, 405.202 303.227, 385.912 294.568 L 375.402 289.850 369.982 293.420 C 367 295.383, 363.136 297.460, 361.394 298.035 C 358.241 299.075, 358.218 299.135, 356.534 310.290 C 354.203 325.732, 354.131 325.949, 350.618 328.091 C 347.520 329.980, 347.753 329.993, 386.750 329.996 L 426 330 426 298.500 C 426 281.175, 425.865 267, 425.699 267 C 425.534 267, 421.248 274.160, 416.176 282.910" stroke="none" fill="#ffffff" fill-rule="evenodd"/><path d="M 3.174 3.314 L 1 5.629 1 116.860 L 1 228.091 3.455 230.545 C 5.819 232.910, 6.406 233, 19.455 233 L 33 233 33 225 L 33 217 25 217 L 17 217 17 189 L 17 161 25 161 L 33 161 33 153 L 33 145 25 145 L 17 145 17 117 L 17 89 25 89 L 33 89 33 81 L 33 73 25 73 L 17 73 17 44.500 L 17 16 84.960 16 L 152.919 16 153.210 24.250 L 153.500 32.500 161.209 32.791 L 168.918 33.083 169.209 24.791 L 169.500 16.500 197.209 16.234 L 224.919 15.969 225.209 24.234 L 225.500 32.500 233.209 32.791 L 240.918 33.083 241.209 24.791 L 241.500 16.500 269.500 16.500 L 297.500 16.500 297.791 24.791 L 298.082 33.083 305.791 32.791 L 313.500 32.500 313.801 22 C 314.158 9.549, 313.560 5.560, 310.944 2.944 C 309.036 1.036, 306.215 1, 157.174 1 L 5.349 1 3.174 3.314 M 51.455 51.455 L 49 53.909 49 165 L 49 276.091 51.455 278.545 L 53.909 281 134.062 281 C 210.020 281, 214.174 280.908, 213.454 279.250 C 207.875 266.410, 207.874 259.687, 213.449 248.406 C 216.688 241.853, 217 240.462, 217 232.589 C 217 225.139, 216.667 223.446, 214.571 220.229 C 210.937 214.649, 208.651 205.609, 209.352 199.583 C 209.678 196.778, 211.526 191.363, 213.476 187.500 L 217.009 180.500 217.004 158.750 L 217 137 245.500 137 L 274 137 274 141.465 C 274 144.856, 274.465 146.179, 275.934 146.965 C 279.190 148.707, 279.612 148.229, 280.877 141.361 C 282.242 133.956, 284.980 127.825, 288.692 123.860 C 290.271 122.173, 290.773 120.978, 290.082 120.551 C 289.349 120.097, 289 111.043, 289 92.441 L 289 65 317.500 65 L 346 65 346 89 L 346 113 349.250 113.044 C 351.038 113.068, 354.300 113.736, 356.500 114.529 C 358.700 115.321, 360.837 115.977, 361.250 115.985 C 361.663 115.993, 362 102.478, 362 85.950 C 362 54.501, 361.588 51.207, 357.455 49.621 C 356.565 49.280, 287.903 49, 204.873 49 L 53.909 49 51.455 51.455 M 65 93 L 65 121 133 121 L 201 121 201 93 L 201 65 133 65 L 65 65 65 93 M 217 93.016 L 217 121.031 245.250 120.766 L 273.500 120.500 273.766 92.750 L 274.032 65 245.516 65 L 217 65 217 93.016 M 65 165 L 65 193 133 193 L 201 193 201 165 L 201 137 133 137 L 65 137 65 165 M 307.604 139.305 C 305.747 141.162, 304.965 143.839, 303.585 153.055 C 301.359 167.922, 301.442 167.699, 297.672 168.943 C 295.894 169.530, 292.072 171.569, 289.179 173.474 L 283.920 176.938 271.562 171.469 C 264.765 168.461, 258.544 166, 257.737 166 C 254.516 166, 250.770 170.687, 242.740 184.766 C 238.118 192.870, 234.084 200.199, 233.775 201.052 C 232.486 204.620, 235.799 208.563, 246.336 216 L 256.961 223.500 256.981 233.046 L 257 242.592 246.002 250.364 C 235.185 258.007, 233.032 260.605, 233.872 265 C 234.363 267.568, 251.167 296.404, 253.249 298.250 C 256.110 300.788, 258.793 300.439, 267.625 296.384 C 271.956 294.395, 277.340 291.967, 279.589 290.989 L 283.678 289.209 288.089 292.213 C 290.515 293.865, 294.372 296.035, 296.659 297.034 C 301.406 299.108, 301.277 298.805, 303.618 313.480 C 306.191 329.617, 305.169 329, 329.320 329 C 354.098 329, 353.073 329.597, 355.442 313.774 C 357.674 298.860, 357.476 299.325, 362.528 297.091 C 364.951 296.019, 368.861 293.823, 371.217 292.211 L 375.500 289.280 387.333 294.640 C 399.466 300.136, 401.794 300.716, 404.947 299.028 C 406.501 298.197, 419.126 277.552, 424.444 267.147 C 427.212 261.732, 425.400 259.097, 412.863 250.315 L 402 242.704 402 232.927 L 402 223.150 412.970 215.565 C 423.447 208.321, 426 205.812, 426 202.760 C 426 200.838, 408.158 169.785, 406.148 168.207 C 402.609 165.429, 400.247 165.842, 387.979 171.389 C 375.729 176.926, 375.712 176.931, 373.107 175.093 C 371.673 174.081, 367.721 171.857, 364.325 170.150 C 357.519 166.730, 357.597 166.868, 355.992 155.500 C 355.371 151.100, 354.431 145.829, 353.903 143.787 C 352.238 137.349, 350.970 137, 329.232 137 C 310.389 137, 309.852 137.057, 307.604 139.305 M 318.070 162.750 C 316.387 176.697, 315.888 179.120, 314.624 179.477 C 307.180 181.581, 300.045 185.087, 294.088 189.568 L 286.846 195.016 275.226 190.008 C 268.835 187.254, 263.132 185, 262.553 185.001 C 261.974 185.002, 259.577 188.564, 257.227 192.918 L 252.954 200.834 263.973 208.667 L 274.992 216.500 274.246 221.500 C 273.286 227.933, 273.290 239.251, 274.255 245 L 275.010 249.500 264.005 257.354 C 257.952 261.674, 253 265.408, 253 265.651 C 253 265.894, 255.047 269.643, 257.550 273.981 L 262.099 281.869 269.300 278.808 C 273.260 277.124, 278.891 274.691, 281.814 273.400 L 287.127 271.054 292.244 275.099 C 298.081 279.713, 303.301 282.544, 310.446 284.973 C 316.183 286.923, 316.156 286.859, 318.022 302.750 L 319.225 313 329.612 313 C 335.326 313, 340 312.644, 340 312.208 C 340 309.917, 343.196 287.493, 343.620 286.806 C 343.894 286.363, 344.892 286, 345.837 286 C 348.741 286, 361.209 279.521, 366.710 275.153 L 371.920 271.017 384.429 276.411 L 396.937 281.806 401.511 273.876 C 404.027 269.515, 405.874 265.605, 405.616 265.187 C 405.358 264.770, 400.372 261.069, 394.536 256.964 L 383.926 249.500 384.711 245 C 385.700 239.336, 385.729 226.902, 384.766 221 L 384.033 216.500 394.099 209.500 C 399.635 205.650, 404.605 201.971, 405.144 201.324 C 406.240 200.006, 398.269 185.029, 396.462 185.011 C 395.890 185.005, 390.107 187.248, 383.610 189.995 L 371.797 194.991 367.148 190.862 C 362.088 186.368, 349.888 180, 346.337 180 C 345.117 180, 343.894 179.637, 343.620 179.194 C 343.196 178.507, 340 156.083, 340 153.792 C 340 153.356, 335.331 153, 329.623 153 L 319.247 153 318.070 162.750 M 321.186 203.562 C 293.535 211.003, 290.066 248.080, 315.839 260.716 C 320.593 263.046, 322.782 263.491, 329.500 263.491 C 336.218 263.491, 338.407 263.046, 343.161 260.716 C 368.997 248.049, 365.286 210.779, 337.467 203.533 C 330.394 201.691, 328.122 201.695, 321.186 203.562 M 65 237 L 65 265 133 265 L 201 265 201 237 L 201 209 133 209 L 65 209 65 237 M 325.500 216.919 C 321.158 217.981, 318.437 219.629, 316.081 222.624 C 304.463 237.394, 322.581 256.874, 338.759 247.006 C 348.991 240.765, 348.418 223.673, 337.811 218.748 C 333.326 216.666, 329.101 216.038, 325.500 216.919" stroke="none" fill="#4694d9" fill-rule="evenodd"/></svg>