<svg xmlns="http://www.w3.org/2000/svg" width="621" height="469" viewBox="0 0 621 469" version="1.1"><path d="M 118.170 0.750 C 178.489 0.892, 277.489 0.892, 338.170 0.750 C 398.852 0.608, 349.500 0.491, 228.500 0.491 C 107.500 0.491, 57.852 0.608, 118.170 0.750 M 0.488 170 C 0.488 258.825, 0.606 295.163, 0.750 250.750 C 0.894 206.338, 0.894 133.663, 0.750 89.250 C 0.606 44.838, 0.488 81.175, 0.488 170 M 222.450 35.647 L 222.500 47.298 340 47.399 C 404.625 47.455, 451.988 47.374, 445.250 47.219 L 433 46.938 433 35.469 L 433 24 392.500 24 L 352 24 352 35.500 L 352 47 340 47 L 328 47 328 35.500 L 328 24 287 24 L 246 24 246 35.500 L 246 47 234.532 47 L 223.063 47 222.732 35.498 L 222.400 23.997 222.450 35.647 M 189.750 70.750 C 249.838 70.892, 348.163 70.892, 408.250 70.750 C 468.337 70.608, 419.175 70.491, 299 70.491 C 178.825 70.491, 129.662 70.608, 189.750 70.750 M 70.488 240 C 70.488 328.275, 70.606 364.388, 70.750 320.250 C 70.894 276.113, 70.894 203.888, 70.750 159.750 C 70.606 115.613, 70.488 151.725, 70.488 240 M 316 135 L 316 176 357 176 L 398 176 398 135 L 398 94 357 94 L 316 94 316 135 M 422 134.944 L 422 175.888 443.171 176.194 C 454.816 176.362, 473.041 176.369, 483.671 176.209 L 503 175.918 503 134.959 L 503 94 462.500 94 L 422 94 422 134.944 M 35.498 105.732 L 47 106.063 47 117.532 L 47 129 35.500 129 L 24 129 24 170 L 24 211 35.500 211 L 47 211 47 223 L 47 235 35.500 235 L 24 235 24 275.500 L 24 316 35.469 316 L 46.938 316 47.219 328.250 C 47.374 334.988, 47.455 287.625, 47.399 223 L 47.298 105.500 35.647 105.450 L 23.997 105.400 35.498 105.732 M 94 240 L 94 281 193.500 281 L 293 281 293 240 L 293 199 193.500 199 L 94 199 94 240 M 316.238 240.250 L 316.477 281.500 316.750 240.761 L 317.022 200.022 357.761 199.750 L 398.500 199.477 357.250 199.238 L 316 199 316.238 240.250 M 421.502 200.250 C 420.710 202.522, 420.485 222.004, 421.250 222.002 C 421.663 222.001, 422 217.076, 422 211.057 L 422 200.115 426.250 199.732 L 430.500 199.349 426.219 199.175 C 423.556 199.066, 421.773 199.473, 421.502 200.250 M 489.250 298.716 C 490.762 298.945, 493.238 298.945, 494.750 298.716 C 496.262 298.487, 495.025 298.300, 492 298.300 C 488.975 298.300, 487.738 298.487, 489.250 298.716 M 328 302.950 C 328 303.473, 325.413 304.035, 322.250 304.200 L 316.500 304.500 316.500 345.500 L 316.500 386.500 322.750 387 C 326.188 387.275, 329 387.163, 329 386.750 C 329 386.337, 326.300 386, 323 386 L 317 386 317 345.500 L 317 305 323 305 C 327.667 305, 329 304.667, 329 303.500 C 329 302.675, 328.775 302, 328.500 302 C 328.225 302, 328 302.428, 328 302.950 M 94 345.500 L 94 386 193.500 386 L 293 386 293 345.500 L 293 305 193.500 305 L 94 305 94 345.500 M 474.946 324.750 L 471.500 328.500 475.250 325.054 C 477.313 323.158, 479 321.471, 479 321.304 C 479 320.540, 478.154 321.260, 474.946 324.750 M 394.365 339.500 C 394.368 345, 394.536 347.122, 394.738 344.216 C 394.941 341.311, 394.939 336.811, 394.734 334.216 C 394.528 331.622, 394.363 334, 394.365 339.500 M 533.336 340 C 533.336 344.125, 533.513 345.813, 533.728 343.750 C 533.944 341.688, 533.944 338.313, 533.728 336.250 C 533.513 334.188, 533.336 335.875, 533.336 340 M 416.320 340 C 416.320 343.575, 416.502 345.038, 416.723 343.250 C 416.945 341.462, 416.945 338.538, 416.723 336.750 C 416.502 334.962, 416.320 336.425, 416.320 340 M 449.286 339.500 C 449.294 342.250, 449.488 343.256, 449.718 341.736 C 449.947 340.216, 449.941 337.966, 449.704 336.736 C 449.467 335.506, 449.279 336.750, 449.286 339.500 M 461 368.500 C 462.866 370.425, 464.617 372, 464.892 372 C 465.167 372, 463.866 370.425, 462 368.500 C 460.134 366.575, 458.383 365, 458.108 365 C 457.833 365, 459.134 366.575, 461 368.500 M 479.308 468.748 C 486.353 468.920, 497.603 468.919, 504.308 468.747 C 511.014 468.574, 505.250 468.433, 491.500 468.434 C 477.750 468.434, 472.264 468.576, 479.308 468.748" stroke="none" fill="#e8e8e8" fill-rule="evenodd"/><path d="M 0.004 4.750 L 0.007 9.500 1.954 6.308 C 3.024 4.553, 5.160 2.433, 6.700 1.598 L 9.500 0.080 4.750 0.040 L 0 0 0.004 4.750 M 451.088 2.280 C 456.618 6.007, 456.969 7.567, 456.985 28.500 L 457 47.500 339.750 47.399 L 222.500 47.298 222.218 35.649 L 221.937 24 122.968 24 L 24 24 24 64.468 L 24 104.937 35.649 105.218 L 47.298 105.500 47.399 222.805 L 47.500 340.110 27.328 339.805 C 7.389 339.504, 7.125 339.471, 4.469 337 C 2.991 335.625, 1.409 333.600, 0.954 332.500 C 0.499 331.400, 0.098 361.663, 0.063 399.750 L 0 469 233.750 468.996 L 467.500 468.993 464.190 466.974 C 459.733 464.257, 458.631 461.098, 455.918 443.262 L 453.600 428.023 450.362 426.954 C 448.580 426.366, 443.331 423.505, 438.696 420.595 L 430.270 415.305 416.385 421.648 C 397.517 430.269, 396.163 430.646, 391.688 428.522 C 388.558 427.037, 386.452 423.972, 375.544 405.038 C 367.399 390.899, 363.002 382.251, 363.005 380.381 C 363.014 375.515, 365.974 372.395, 380.376 362.072 L 394.252 352.125 394.376 339.751 L 394.500 327.377 382.567 318.938 C 376.003 314.297, 368.916 308.882, 366.817 306.905 C 360.742 301.183, 361.108 299.803, 375.249 275.100 C 387.907 252.988, 390.383 250.012, 396.130 250.004 C 397.576 250.002, 405.186 252.917, 413.039 256.483 C 431.392 264.816, 430.380 264.568, 434.235 261.671 C 436.031 260.321, 441.130 257.404, 445.566 255.190 L 453.632 251.163 455.945 235.831 C 457.217 227.399, 458.936 219.018, 459.764 217.206 C 462.460 211.308, 464.087 211, 492.550 211 L 518.200 211 521.427 214.250 C 524.508 217.352, 524.777 218.269, 527.336 234.425 C 528.811 243.734, 530.126 251.395, 530.259 251.449 C 535.462 253.575, 546.304 259.197, 549.159 261.250 C 551.262 262.762, 553.180 264, 553.421 264 C 553.662 264, 560.804 260.850, 569.291 257 C 577.778 253.150, 585.953 250, 587.457 250 C 592.664 250, 595.533 252.914, 603.097 265.891 C 607.140 272.826, 612.817 282.550, 615.713 287.500 L 620.978 296.500 620.989 148.250 L 621 0 534.352 0 L 447.704 0 451.088 2.280 M 79.542 70.729 C 76.077 71.610, 73.212 74.033, 71.586 77.460 C 70.159 80.468, 70 96.714, 70 239.933 C 70 412.821, 69.686 403.248, 75.514 407.832 L 78.270 410 208.135 410 C 279.561 410, 338 409.854, 338 409.676 C 338 409.498, 336.253 405.975, 334.117 401.848 C 331.981 397.721, 329.917 392.467, 329.529 390.172 L 328.824 386 322.912 386 L 317 386 317 345.500 L 317 305 322.750 304.999 L 328.500 304.998 328.676 297.749 C 328.773 293.762, 329.560 288.531, 330.426 286.124 C 331.292 283.718, 332 281.580, 332 281.374 C 332 281.168, 328.625 281, 324.500 281 L 317 281 317 240.500 L 317 200 357.500 200 L 398 200 398 207.860 L 398 215.720 403.312 216.268 C 406.234 216.570, 411.396 217.983, 414.782 219.408 C 418.169 220.834, 421.178 222, 421.470 222 C 421.761 222, 422 217.050, 422 211 L 422 200 425.750 199.978 C 429.080 199.958, 429.836 199.449, 432.500 195.426 C 436.108 189.977, 442.115 184.848, 448.669 181.619 C 458.793 176.630, 459.846 176.500, 490 176.500 C 505.675 176.500, 520.413 176.843, 522.750 177.262 L 527 178.024 527 128.147 C 527 78.496, 526.990 78.257, 524.832 75.514 C 520.209 69.637, 534.998 69.990, 298.782 70.116 C 179.277 70.180, 80.619 70.456, 79.542 70.729 M 94 135 L 94 176 193.500 176 L 293 176 293 135 L 293 94 193.500 94 L 94 94 94 135 M 476.540 248.750 C 475.534 257.413, 474.359 265.456, 473.928 266.625 C 473.394 268.074, 471.927 268.969, 469.322 269.436 C 462.902 270.587, 447.878 278.506, 441.840 283.923 C 438.727 286.715, 435.718 289, 435.154 289 C 434.591 289, 426.820 285.855, 417.886 282.012 C 408.952 278.168, 401.567 275.131, 401.474 275.262 C 400.445 276.712, 390 295.775, 390 296.203 C 390 296.520, 396.676 301.580, 404.835 307.447 L 419.670 318.115 418.257 325.308 C 417.263 330.368, 417.032 335.761, 417.477 343.500 C 417.824 349.550, 418.197 356.275, 418.304 358.444 L 418.500 362.388 404.297 372.444 C 396.486 377.975, 390.073 382.790, 390.047 383.144 C 389.961 384.318, 401.355 404, 402.120 404 C 402.533 404, 410.148 400.869, 419.044 397.042 L 435.216 390.084 441.358 395.058 C 448.420 400.776, 459.917 406.983, 468.250 409.576 C 471.413 410.560, 474.034 411.846, 474.076 412.433 C 474.118 413.020, 475.131 420.925, 476.326 430 L 478.500 446.500 491.750 446.779 C 501.959 446.994, 505.018 446.764, 505.076 445.779 C 505.118 445.076, 506.131 437.100, 507.326 428.056 L 509.500 411.613 517.336 408.869 C 526.480 405.668, 536.582 399.891, 543.136 394.116 L 547.773 390.030 564.325 397.015 C 573.429 400.857, 581.265 404, 581.739 404 C 582.214 404, 583.566 402.087, 584.744 399.750 C 585.923 397.413, 588.474 392.704, 590.413 389.287 L 593.940 383.075 579.720 372.920 C 571.899 367.335, 565.153 362.448, 564.728 362.061 C 564.304 361.673, 564.699 356.664, 565.608 350.929 C 566.986 342.227, 567.072 339.012, 566.128 331.501 C 565.506 326.550, 564.728 321.517, 564.399 320.316 C 563.900 318.492, 564.910 317.338, 570.524 313.316 C 574.222 310.667, 580.988 305.783, 585.561 302.463 L 593.876 296.426 587.916 285.760 L 581.957 275.094 573.728 278.643 C 569.203 280.595, 561.603 283.796, 556.839 285.756 L 548.178 289.319 542.663 284.409 C 533.282 276.058, 519.487 269, 512.544 269 C 509.600 269, 509.669 269.234, 507.531 252 C 506.678 245.125, 505.739 238.037, 505.445 236.250 L 504.909 233 491.639 233 L 478.369 233 476.540 248.750 M 482 299.367 C 470.524 301.871, 458.137 311.795, 453.092 322.527 C 447.971 333.421, 448.181 347.503, 453.623 358.243 C 457.354 365.606, 465.691 373.492, 473.709 377.245 C 485.541 382.782, 502.477 382.110, 513 375.687 C 536.813 361.151, 541.054 330.149, 521.856 310.951 C 516.170 305.265, 507.934 300.767, 500.201 299.125 C 493.701 297.745, 489.160 297.805, 482 299.367 M 619.312 304.228 C 618.765 305.453, 611.834 310.989, 603.909 316.529 L 589.500 326.602 589.313 339.561 L 589.125 352.520 603.164 362.402 C 611.011 367.926, 618.038 373.655, 619.097 375.392 C 620.979 378.477, 620.993 378.221, 620.996 340.250 C 620.998 319.212, 620.844 302, 620.653 302 C 620.462 302, 619.858 303.002, 619.312 304.228 M 483 319.592 C 478.779 321.417, 473.410 326.399, 471.246 330.500 C 468.880 334.981, 469.107 344.597, 471.694 349.500 C 475.860 357.393, 482.474 361.348, 491.500 361.343 C 509.299 361.334, 519.613 343.230, 510.353 328.253 C 504.953 319.519, 492.376 315.537, 483 319.592 M 608 404.786 C 596.861 424.136, 595.080 426.705, 591.641 428.384 C 586.939 430.680, 586.628 430.595, 567.352 421.720 L 553.204 415.206 548.352 418.660 C 545.683 420.559, 540.575 423.525, 537 425.249 C 533.425 426.974, 530.398 428.438, 530.274 428.502 C 530.149 428.567, 528.901 435.723, 527.499 444.406 C 524.659 462.003, 523.319 465.521, 518.685 467.536 C 515.917 468.740, 522.412 468.927, 568.250 468.961 L 621 469 621 426 C 621 402.350, 620.888 383.016, 620.750 383.036 C 620.612 383.056, 614.875 392.843, 608 404.786" stroke="none" fill="#ffffff" fill-rule="evenodd"/><path d="M 4.400 4.400 L 1 7.800 1 169.353 C 1 289.308, 1.297 331.558, 2.154 333.439 C 4.655 338.928, 6.835 339.472, 27.750 339.826 L 47 340.153 47 328.076 L 47 316 35.500 316 L 24 316 24 275.500 L 24 235 35.500 235 L 47 235 47 223 L 47 211 35.500 211 L 24 211 24 170 L 24 129 35.500 129 L 47 129 47 117.500 L 47 106 35.500 106 L 24 106 24 65 L 24 24 123.500 24 L 223 24 223 35.500 L 223 47 234.500 47 L 246 47 246 35.500 L 246 24 287 24 L 328 24 328 35.500 L 328 47 340 47 L 352 47 352 35.500 L 352 24 392.500 24 L 433 24 433 35.500 L 433 47 445.076 47 L 457.153 47 456.826 27.750 C 456.472 6.835, 455.928 4.655, 450.439 2.154 C 448.549 1.293, 392.016 1, 227.853 1 L 7.800 1 4.400 4.400 M 74.766 73.918 L 71.500 76.836 71.241 238.950 C 70.955 417.995, 70.490 405.106, 77.357 408.365 C 80.490 409.852, 92.454 410, 209.475 410 L 338.147 410 334.924 404.367 C 333.152 401.270, 330.922 396.207, 329.969 393.117 L 328.237 387.500 322.368 387 L 316.500 386.500 316.500 345.500 L 316.500 304.500 322.250 304.200 L 328 303.900 328 298.660 C 328 295.778, 328.675 290.829, 329.500 287.661 C 330.325 284.494, 331 281.699, 331 281.451 C 331 281.203, 327.625 281, 323.500 281 L 316 281 316 240 L 316 199 357 199 L 398 199 398 206.886 L 398 214.773 402.750 215.471 C 405.363 215.855, 410.235 217.256, 413.578 218.584 C 416.922 219.913, 419.944 221, 420.295 221 C 420.645 221, 421.060 216.162, 421.216 210.250 L 421.500 199.500 425.608 199.199 C 428.819 198.965, 430.014 198.343, 431.079 196.353 C 434.800 189.399, 448.010 180.080, 458 177.360 C 461.964 176.281, 460.088 176.127, 442.250 176.067 L 422 176 422 135 L 422 94 462.500 94 L 503 94 503 135 L 503 176 511.757 176 C 516.573 176, 521.973 176.419, 523.757 176.930 L 527 177.860 527 129.398 C 527 76.202, 526.935 75.569, 521.128 72.566 C 518.406 71.158, 495.842 71, 298.065 71 L 78.032 71 74.766 73.918 M 94 135 L 94 176 193.500 176 L 293 176 293 135 L 293 94 193.500 94 L 94 94 94 135 M 316 135 L 316 176 357 176 L 398 176 398 135 L 398 94 357 94 L 316 94 316 135 M 94 240 L 94 281 193.500 281 L 293 281 293 240 L 293 199 193.500 199 L 94 199 94 240 M 464.230 213.001 C 462.431 214.098, 460.521 216.009, 459.985 217.248 C 459.267 218.905, 454 248.993, 454 251.433 C 454 251.623, 450.628 253.379, 446.506 255.337 C 442.384 257.294, 437.065 260.235, 434.687 261.872 L 430.361 264.847 414.931 257.776 C 406.349 253.843, 398.060 250.681, 396.256 250.652 C 394.472 250.624, 391.772 251.522, 390.256 252.649 C 387.472 254.719, 363 296.160, 363 298.806 C 363 303.219, 366.631 306.972, 380.500 316.897 L 395 327.273 394.959 339.887 L 394.918 352.500 380.902 362.372 C 366.044 372.837, 363.594 375.388, 363.610 380.380 C 363.621 383.999, 385.532 423.068, 389.616 426.750 C 393.710 430.441, 397.607 429.689, 414.586 421.929 L 430.059 414.858 436.738 419.076 C 440.412 421.397, 445.758 424.330, 448.618 425.595 C 454.504 428.198, 453.867 426.608, 456.985 446.500 C 458.106 453.650, 459.531 460.759, 460.152 462.297 C 462.299 467.615, 464.480 468, 492.435 468 L 517.968 468 521.030 465.250 C 523.944 462.633, 524.223 461.678, 526.803 445.509 L 529.514 428.518 536.511 425.009 C 540.359 423.079, 545.612 420.038, 548.184 418.250 C 550.756 416.462, 553.085 415, 553.360 415 C 553.635 415, 560.804 418.150, 569.291 422 C 577.840 425.878, 586.115 429, 587.845 429 C 592.796 429, 595.946 425.086, 608.430 403.426 C 620.249 382.918, 621.313 379.992, 618.675 375.242 C 617.985 374, 610.977 368.375, 603.101 362.742 L 588.781 352.500 588.641 339.624 L 588.500 326.748 602.706 316.855 C 610.520 311.414, 617.608 305.971, 618.456 304.759 C 621.767 300.033, 620.607 296.774, 607.780 274.744 C 601.059 263.202, 594.476 253.048, 593.151 252.179 C 589.037 249.484, 585.021 250.394, 568.912 257.671 L 553.325 264.712 550.467 262.606 C 548.895 261.448, 543.535 258.434, 538.557 255.909 L 529.506 251.318 526.878 234.827 C 525.433 225.756, 523.759 217.419, 523.159 216.298 C 520.661 211.629, 516.881 211, 491.349 211.004 C 469.288 211.007, 467.255 211.157, 464.230 213.001 M 477.658 236.250 C 477.347 238.037, 476.330 245.857, 475.397 253.628 L 473.700 267.755 467.758 269.407 C 458.026 272.113, 447.163 278.244, 438.943 285.671 L 435.307 288.955 419.089 281.977 C 410.169 278.140, 402.478 275, 401.999 275 C 401.283 275, 395.158 285.170, 390.193 294.604 C 389.171 296.546, 390.242 297.533, 404.131 307.462 C 417.020 316.676, 419.096 318.524, 418.612 320.358 C 418.302 321.536, 417.514 326.775, 416.861 332 C 415.848 340.120, 415.920 342.943, 417.357 351.431 C 418.282 356.892, 418.693 361.663, 418.269 362.033 C 417.846 362.402, 411.311 367.091, 403.748 372.451 C 396.184 377.812, 389.828 382.491, 389.623 382.849 C 389.330 383.361, 395.008 393.945, 400.837 403.751 C 401.388 404.677, 405.815 403.181, 417.855 398.001 C 426.806 394.151, 434.590 391, 435.153 391 C 435.717 391, 438.500 393.033, 441.339 395.517 C 447.200 400.647, 459.844 407.546, 468 410.065 L 473.500 411.764 475.674 428.132 C 476.869 437.134, 477.882 445.075, 477.924 445.778 C 477.983 446.765, 481.140 446.993, 491.750 446.778 L 505.500 446.500 506.719 437 C 507.389 431.775, 508.436 423.872, 509.045 419.437 L 510.154 411.374 514.827 410.130 C 522.246 408.155, 532.889 402.567, 540.796 396.496 C 545.633 392.782, 548.688 391.084, 549.863 391.457 C 550.838 391.766, 558.341 394.905, 566.537 398.433 C 574.733 401.960, 581.726 404.670, 582.076 404.453 C 582.919 403.932, 594.008 384.136, 593.972 383.216 C 593.957 382.822, 589.847 379.575, 584.840 376 C 579.832 372.425, 573.157 367.628, 570.007 365.340 L 564.280 361.180 565.603 354.340 C 567.297 345.588, 567.321 332.232, 565.659 324.299 L 564.359 318.098 579.180 307.504 C 587.331 301.677, 594 296.636, 594 296.301 C 594 294.992, 582.451 275.033, 581.685 275.017 C 581.236 275.008, 573.445 278.175, 564.371 282.055 L 547.873 289.110 541.517 283.164 C 534.418 276.524, 523.792 270.721, 515.627 269.026 L 510.229 267.906 509.180 260.703 C 508.603 256.741, 507.582 248.887, 506.911 243.250 L 505.691 233 491.957 233 L 478.223 233 477.658 236.250 M 479.500 300.344 C 465.864 304.845, 455.840 314.704, 451.524 327.860 C 448.942 335.731, 449.723 348.576, 453.249 356.253 C 462.978 377.431, 489.519 386.809, 510.575 376.507 C 517.471 373.133, 525.817 364.704, 529.536 357.355 C 532.311 351.874, 532.500 350.764, 532.500 339.984 C 532.500 329.020, 532.345 328.152, 529.259 321.879 C 525.210 313.648, 518.165 306.911, 509.223 302.716 C 503.388 299.979, 501.246 299.527, 493 299.293 C 487.099 299.125, 481.985 299.523, 479.500 300.344 M 94 345.500 L 94 386 193.500 386 L 293 386 293 345.500 L 293 305 193.500 305 L 94 305 94 345.500 M 486.500 317.924 C 481.686 319.114, 477.519 321.645, 474.254 325.363 C 461.996 339.325, 472.629 362, 491.435 362 C 498.577 362, 506.503 357.921, 510.464 352.207 C 514.261 346.729, 515.247 336.360, 512.490 330.902 C 507.573 321.168, 496.251 315.515, 486.500 317.924" stroke="none" fill="#a7a7a7" fill-rule="evenodd"/></svg>